<svg width="139" height="93" viewBox="0 0 139 93" fill="none" xmlns="http://www.w3.org/2000/svg">
<path fill-rule="evenodd" clip-rule="evenodd" d="M138.462 46.1342C138.462 71.6134 107.651 92.2684 69.643 92.2684C31.636 92.2684 0.823975 71.6134 0.823975 46.1342C0.823975 20.655 31.636 0 69.643 0C107.651 0 138.462 20.655 138.462 46.1342ZM110.343 74.8739H98.478L70.251 57.9973C69.474 57.5509 68.952 57.3276 68.683 57.3276C68.623 57.3276 68.578 57.3574 68.548 57.4169C68.548 57.5062 68.578 57.6253 68.638 57.7741L64.874 71.7486C64.337 73.8322 62.948 74.8739 60.708 74.8739H56.227C54.435 74.8739 53.539 74.1893 53.539 72.8202C53.539 72.5225 53.584 72.1654 53.673 71.7486L56.656 60.6616H12.943C15.758 64.9434 19.848 68.9802 25.171 72.5487C36.228 79.9605 51.929 84.7872 69.643 84.7872C85.43 84.7872 99.617 80.9539 110.343 74.8739ZM27.153 18.4498C38.066 11.7614 52.962 7.48122 69.643 7.48122C87.358 7.48122 103.059 12.3079 114.115 19.7197C118.106 22.395 121.403 25.3334 123.99 28.441H110.933L73.656 45.3176C72.641 45.7641 71.998 45.9873 71.729 45.9873C71.7 45.9873 71.685 45.9724 71.685 45.9426V45.898C71.685 45.8087 71.774 45.6896 71.954 45.5408L75.672 31.6109C75.792 31.1942 75.851 30.8222 75.851 30.4948C75.851 29.1553 74.955 28.4856 73.163 28.4856H68.683C66.472 28.4856 65.069 29.5274 64.471 31.6109L63.644 34.6851H18.418L20.17 28.191H66.033C68.042 28.191 69.305 27.2439 69.821 25.3498L70.961 21.2504C71.07 20.8716 71.124 20.5333 71.124 20.2357C71.124 19.0451 70.323 18.4498 68.721 18.4498H27.153ZM126.264 31.4863L82.393 51.6575L115.293 71.7375C125.623 64.4236 130.955 55.2843 130.955 46.1342C130.955 41.1506 129.373 36.1702 126.264 31.4863ZM15.852 44.4263L14.101 50.961L59.277 50.921L61.024 44.4263H15.852Z" fill="#2D2D2D"/>
</svg>
