<svg width="187" height="1187" viewBox="0 0 187 1187" fill="none" xmlns="http://www.w3.org/2000/svg">
<path d="M4.49999 1186.7L4.49998 1080.87L35.61 1080.87L35.61 1151.76L77.175 1151.76L77.175 1087.25L108.285 1087.25L108.285 1151.76L151.89 1151.76L151.89 1079.6L183 1079.6L183 1186.7L4.49999 1186.7ZM4.49998 956.572L4.49998 923.422L119.76 923.422C131.32 923.422 141.265 924.952 149.595 928.012C157.925 931.072 164.81 935.322 170.25 940.762C175.69 946.202 179.685 952.832 182.235 960.652C184.785 968.472 186.06 977.057 186.06 986.407C186.06 1031.63 165.405 1054.24 124.095 1054.24L4.49998 1054.24L4.49998 1019.3L117.21 1019.3C124.18 1019.3 130.13 1018.71 135.06 1017.52C139.82 1016.16 143.73 1014.12 146.79 1011.4C149.68 1008.68 151.805 1005.28 153.165 1001.2C154.355 997.117 154.95 992.357 154.95 986.917C154.95 976.207 151.975 968.472 146.025 963.712C140.075 958.952 130.47 956.572 117.21 956.572L4.49998 956.572ZM6.28498 893.599C5.60498 889.689 5.00998 885.524 4.49997 881.104C3.81997 876.514 3.30997 872.009 2.96998 867.589C2.62998 862.999 2.37498 858.579 2.20497 854.329C2.03497 850.079 1.94997 846.169 1.94997 842.599C1.94997 834.269 2.71497 826.109 4.24497 818.119C5.77497 809.959 8.40998 802.734 12.15 796.444C15.89 789.984 21.075 784.884 27.705 781.144C34.165 777.234 42.325 775.279 52.185 775.279C66.805 775.279 78.705 778.679 87.885 785.479C97.065 792.279 103.44 801.374 107.01 812.764L114.915 800.269L183 759.469L183 799.759L113.13 840.304L109.815 858.664L183 858.664L183 893.599L6.28498 893.599ZM33.06 840.049C33.06 843.619 33.145 847.189 33.315 850.759C33.485 854.159 33.825 856.794 34.335 858.664L86.1 858.664L86.1 843.874C86.1 834.184 83.89 826.449 79.47 820.669C75.05 814.889 67.74 811.999 57.54 811.999C49.89 811.999 43.94 814.379 39.69 819.139C35.27 823.899 33.06 830.869 33.06 840.049ZM93.75 754.278C64 754.278 41.135 747.733 25.155 734.643C9.00497 721.553 0.929966 702.853 0.929965 678.543C0.929965 665.793 3.13997 654.658 7.55997 645.138C11.98 635.618 18.27 627.713 26.43 621.423C34.59 615.133 44.365 610.458 55.755 607.398C67.145 604.338 79.81 602.808 93.75 602.808C123.5 602.808 146.45 609.438 162.6 622.698C178.58 635.788 186.57 654.403 186.57 678.543C186.57 691.463 184.36 702.683 179.94 712.203C175.52 721.723 169.23 729.628 161.07 735.918C152.91 742.038 143.135 746.628 131.745 749.688C120.355 752.748 107.69 754.278 93.75 754.278ZM93.75 717.558C102.76 717.558 111.09 716.793 118.74 715.263C126.22 713.733 132.68 711.438 138.12 708.378C143.56 705.148 147.81 701.068 150.87 696.138C153.93 691.208 155.46 685.343 155.46 678.543C155.46 666.133 150.615 656.528 140.925 649.728C131.235 642.928 115.51 639.528 93.75 639.528C85.08 639.528 77.005 640.293 69.525 641.823C62.045 643.183 55.5 645.393 49.89 648.453C44.28 651.513 39.945 655.508 36.885 660.438C33.655 665.368 32.04 671.403 32.04 678.543C32.04 690.953 37.055 700.558 47.085 707.358C56.945 714.158 72.5 717.558 93.75 717.558ZM175.605 456.968C179.515 462.408 182.32 469.378 184.02 477.878C185.72 486.208 186.57 494.793 186.57 503.633C186.57 514.343 184.955 524.543 181.725 534.233C178.325 543.753 172.97 552.168 165.66 559.478C158.18 566.788 148.575 572.653 136.845 577.073C124.945 581.323 110.58 583.448 93.75 583.448C76.24 583.448 61.62 581.068 49.89 576.308C37.99 571.378 28.47 565.088 21.33 557.438C14.02 549.618 8.83496 540.948 5.77496 531.428C2.54496 521.908 0.929958 512.388 0.929958 502.868C0.929957 492.668 1.60996 484.083 2.96996 477.113C4.32996 469.973 5.94496 464.108 7.81496 459.518L37.395 466.403C35.525 470.313 34.165 474.988 33.315 480.428C32.465 485.698 32.04 492.158 32.04 499.808C32.04 513.918 37.055 525.308 47.085 533.978C57.115 542.478 72.67 546.728 93.75 546.728C102.93 546.728 111.345 545.708 118.995 543.668C126.475 541.628 132.935 538.568 138.375 534.488C143.645 530.238 147.81 525.053 150.87 518.933C153.76 512.643 155.205 505.418 155.205 497.258C155.205 489.608 154.44 483.148 152.91 477.878C151.38 472.608 149.425 468.018 147.045 464.108L175.605 456.968ZM6.28496 435.396C5.60496 431.486 5.00996 427.321 4.49995 422.901C3.81995 418.311 3.30995 413.806 2.96996 409.386C2.62996 404.796 2.37496 400.376 2.20495 396.126C2.03495 391.876 1.94995 387.966 1.94995 384.396C1.94995 376.066 2.71495 367.906 4.24495 359.916C5.77495 351.756 8.40996 344.531 12.15 338.241C15.89 331.781 21.075 326.681 27.705 322.941C34.165 319.031 42.325 317.076 52.185 317.076C66.805 317.076 78.705 320.476 87.885 327.276C97.065 334.076 103.44 343.171 107.01 354.561L114.915 342.066L183 301.266L183 341.556L113.13 382.101L109.815 400.461L183 400.461L183 435.396L6.28496 435.396ZM33.06 381.846C33.06 385.416 33.145 388.986 33.315 392.556C33.485 395.956 33.825 398.591 34.335 400.461L86.1 400.461L86.1 385.671C86.1 375.981 83.89 368.246 79.47 362.466C75.05 356.686 67.74 353.796 57.54 353.796C49.89 353.796 43.94 356.176 39.69 360.936C35.27 365.696 33.06 372.666 33.06 381.846ZM143.475 203.486L143.475 258.311L183 271.826L183 306.761L3.22495 242.501L3.22495 216.746L183 152.486L183 189.206L143.475 203.486ZM115.425 249.386L115.425 211.136L75.6449 224.396L47.595 229.751L47.595 231.026L75.9 236.381L115.425 249.386ZM89.9249 92.6962L61.8749 106.721L61.8749 107.996L89.9249 103.916L183 103.916L183 137.066L3.22494 137.066L3.22494 111.566L98.3399 43.9912L125.625 30.4762L125.625 29.2012L98.3399 33.2812L4.49994 33.2812L4.49994 0.131207L184.275 0.131199L184.275 25.6312L89.9249 92.6962Z" fill="#D3D0D0" fill-opacity="0.2"/>
</svg>
