<svg width="15" height="15" viewBox="0 0 15 15" fill="none" xmlns="http://www.w3.org/2000/svg">
<g clip-path="url(#clip0_3_8292)">
<path d="M14.8689 14.235L11.2237 10.5898C12.2015 9.46563 12.7935 7.99889 12.7935 6.39579C12.7935 2.86696 9.92324 0 6.39774 0C2.86892 0 0.00195312 2.87029 0.00195312 6.39579C0.00195312 9.92129 2.87224 12.7916 6.39774 12.7916C8.00084 12.7916 9.46758 12.1996 10.5918 11.2217L14.237 14.867C14.3235 14.9534 14.4399 15 14.5529 15C14.666 15 14.7824 14.9568 14.8689 14.867C15.0419 14.694 15.0419 14.408 14.8689 14.235ZM0.896632 6.39579C0.896632 3.36253 3.36448 0.898004 6.39441 0.898004C9.42767 0.898004 11.8922 3.36585 11.8922 6.39579C11.8922 9.42572 9.42767 11.8969 6.39441 11.8969C3.36448 11.8969 0.896632 9.42905 0.896632 6.39579Z" fill="black"/>
</g>
<defs>
<clipPath id="clip0_3_8292">
<rect width="15" height="15" fill="white"/>
</clipPath>
</defs>
</svg>
