<svg width="22" height="23" viewBox="0 0 22 23" fill="none" xmlns="http://www.w3.org/2000/svg">
<path fill-rule="evenodd" clip-rule="evenodd" d="M6.465 0.566C7.638 0.512 8.012 0.5 11 0.5C13.988 0.5 14.362 0.513 15.534 0.566C16.706 0.619 17.506 0.806 18.206 1.077C18.939 1.354 19.604 1.787 20.154 2.347C20.714 2.896 21.146 3.56 21.422 4.294C21.694 4.994 21.88 5.794 21.934 6.964C21.988 8.139 22 8.513 22 11.5C22 14.488 21.987 14.862 21.934 16.035C21.881 17.205 21.694 18.005 21.422 18.705C21.146 19.4391 20.7133 20.1042 20.154 20.654C19.604 21.214 18.939 21.646 18.206 21.922C17.506 22.194 16.706 22.38 15.536 22.434C14.362 22.488 13.988 22.5 11 22.5C8.012 22.5 7.638 22.487 6.465 22.434C5.295 22.381 4.495 22.194 3.795 21.922C3.06092 21.646 2.39582 21.2133 1.846 20.654C1.28638 20.1047 0.853315 19.4399 0.577 18.706C0.306 18.006 0.12 17.206 0.066 16.036C0.012 14.861 0 14.487 0 11.5C0 8.512 0.013 8.138 0.066 6.966C0.119 5.794 0.306 4.994 0.577 4.294C0.853723 3.56008 1.28712 2.89531 1.847 2.346C2.39604 1.7865 3.06047 1.35344 3.794 1.077C4.494 0.806 5.294 0.62 6.464 0.566H6.465ZM15.445 2.546C14.285 2.493 13.937 2.482 11 2.482C8.063 2.482 7.715 2.493 6.555 2.546C5.482 2.595 4.9 2.774 4.512 2.925C3.999 3.125 3.632 3.362 3.247 3.747C2.88205 4.10205 2.60118 4.53428 2.425 5.012C2.274 5.4 2.095 5.982 2.046 7.055C1.993 8.215 1.982 8.563 1.982 11.5C1.982 14.437 1.993 14.785 2.046 15.945C2.095 17.018 2.274 17.6 2.425 17.988C2.601 18.465 2.882 18.898 3.247 19.253C3.602 19.618 4.035 19.899 4.512 20.075C4.9 20.226 5.482 20.405 6.555 20.454C7.715 20.507 8.062 20.518 11 20.518C13.938 20.518 14.285 20.507 15.445 20.454C16.518 20.405 17.1 20.226 17.488 20.075C18.001 19.875 18.368 19.638 18.753 19.253C19.118 18.898 19.399 18.465 19.575 17.988C19.726 17.6 19.905 17.018 19.954 15.945C20.007 14.785 20.018 14.437 20.018 11.5C20.018 8.563 20.007 8.215 19.954 7.055C19.905 5.982 19.726 5.4 19.575 5.012C19.375 4.499 19.138 4.132 18.753 3.747C18.3979 3.38207 17.9657 3.10121 17.488 2.925C17.1 2.774 16.518 2.595 15.445 2.546ZM9.595 14.891C10.3797 15.2176 11.2534 15.2617 12.0669 15.0157C12.8805 14.7697 13.5834 14.2489 14.0556 13.5422C14.5278 12.8356 14.7401 11.9869 14.656 11.1411C14.572 10.2953 14.197 9.50497 13.595 8.905C13.2112 8.52148 12.7472 8.22781 12.2363 8.04515C11.7255 7.86248 11.1804 7.79536 10.6405 7.84862C10.1006 7.90187 9.57915 8.07418 9.1138 8.35313C8.64845 8.63208 8.25074 9.01074 7.9493 9.46185C7.64786 9.91296 7.45019 10.4253 7.37052 10.962C7.29084 11.4986 7.33115 12.0463 7.48854 12.5655C7.64593 13.0847 7.91648 13.5626 8.28072 13.9647C8.64496 14.3668 9.09382 14.6832 9.595 14.891ZM7.002 7.502C7.52702 6.97697 8.15032 6.5605 8.8363 6.27636C9.52228 5.99222 10.2575 5.84597 11 5.84597C11.7425 5.84597 12.4777 5.99222 13.1637 6.27636C13.8497 6.5605 14.473 6.97697 14.998 7.502C15.523 8.02702 15.9395 8.65032 16.2236 9.3363C16.5078 10.0223 16.654 10.7575 16.654 11.5C16.654 12.2425 16.5078 12.9777 16.2236 13.6637C15.9395 14.3497 15.523 14.973 14.998 15.498C13.9377 16.5583 12.4995 17.154 11 17.154C9.50046 17.154 8.06234 16.5583 7.002 15.498C5.94166 14.4377 5.34597 12.9995 5.34597 11.5C5.34597 10.0005 5.94166 8.56234 7.002 7.502ZM17.908 6.688C18.0381 6.56527 18.1423 6.41768 18.2143 6.25397C18.2863 6.09027 18.3248 5.91377 18.3274 5.73493C18.33 5.55609 18.2967 5.37855 18.2295 5.21281C18.1622 5.04707 18.0624 4.89651 17.936 4.77004C17.8095 4.64357 17.6589 4.54376 17.4932 4.47652C17.3275 4.40928 17.1499 4.37598 16.9711 4.37858C16.7922 4.38119 16.6157 4.41965 16.452 4.4917C16.2883 4.56374 16.1407 4.6679 16.018 4.798C15.7793 5.05103 15.6486 5.38712 15.6537 5.73493C15.6588 6.08274 15.7992 6.41488 16.0452 6.66084C16.2911 6.90681 16.6233 7.04723 16.9711 7.0523C17.3189 7.05737 17.655 6.92669 17.908 6.688Z" fill="#D3D3D3"/>
</svg>
