<svg width="24" height="25" viewBox="0 0 24 25" fill="none" xmlns="http://www.w3.org/2000/svg">
<path d="M1.902 16.8477V14L0 8.89772H0.957L2.355 12.836L3.969 8.07422H4.848L2.77725 14.0315V16.8485L1.902 16.8477ZM7.539 16.8477H6.80475C6.76797 16.7012 6.74289 16.552 6.72975 16.4015H6.67575C6.42975 16.7142 6.1125 16.9257 5.6205 16.9257C4.82325 16.9257 4.2765 16.3235 4.2765 15.2225C4.2765 14.0225 4.89075 13.2657 6.4605 13.2657H6.58125V12.9335C6.58125 12.1985 6.33525 11.8865 5.847 11.8865C5.40075 11.8865 5.022 12.1205 4.73325 12.3747L4.56525 11.609C4.82325 11.3982 5.3355 11.1642 5.901 11.1642C6.894 11.1642 7.437 11.5865 7.437 12.9455V15.5787C7.437 16.1135 7.491 16.583 7.53375 16.8485L7.539 16.8477ZM6.58575 13.9257H6.48375C5.4015 13.9257 5.172 14.402 5.172 15.125C5.172 15.77 5.38275 16.1907 5.82375 16.1907C6.1245 16.1907 6.426 15.992 6.582 15.746L6.58575 13.9257ZM9.387 16.8477H8.52V11.2265H9.387V11.7185H9.441C9.59775 11.5077 10.02 11.1635 10.5428 11.1635C11.277 11.1635 11.664 11.5737 11.664 12.4295V16.8477H10.785V12.5075C10.785 12.0852 10.5982 11.9375 10.2622 11.9375C9.8985 11.9375 9.59025 12.2187 9.387 12.4955V16.8477ZM12.5228 14.258C12.5228 12.176 13.3005 11.1642 14.4218 11.1642C14.691 11.1642 14.9685 11.2542 15.1365 11.375V8.89772H16.0035V16.8477H15.3585L15.2887 16.4015H15.234C14.9917 16.7142 14.6798 16.9257 14.223 16.9257C13.1213 16.9257 12.5228 15.992 12.5228 14.258ZM15.1373 12.1407C14.961 11.9645 14.7705 11.8745 14.4802 11.8745C13.7812 11.8745 13.4452 12.9335 13.4452 14.0772C13.4452 15.3905 13.6912 16.19 14.328 16.19C14.7622 16.19 14.9918 15.9792 15.1373 15.7572V12.1407ZM18.7418 16.9257C17.586 16.9257 16.8705 16.004 16.8705 14.2805C16.8705 12.4767 17.3708 11.1635 18.5618 11.1635C19.4955 11.1635 20.1045 11.8625 20.1045 13.7697V14.246H17.7728C17.7728 15.5157 18.129 16.1802 18.8197 16.1802C19.3088 16.1802 19.668 15.9612 19.887 15.8052L20.0903 16.469C19.7068 16.7714 19.2309 16.9327 18.7425 16.9257H18.7418ZM17.7847 13.5312H19.2188C19.2188 12.5742 19.062 11.8752 18.5618 11.8752C18.0308 11.8752 17.844 12.5315 17.781 13.5312H17.7847ZM23.8792 11.2422L22.836 13.8672L24 16.8485H23.1022L22.23 14.5355L21.387 16.8485H20.5312L21.699 13.9452L20.6408 11.2422H21.543L22.2698 13.277L23.0347 11.2422H23.8792Z" fill="#D3D3D3"/>
</svg>
