<svg width="24" height="25" viewBox="0 0 24 25" fill="none" xmlns="http://www.w3.org/2000/svg">
<g clip-path="url(#clip0_3_8750)">
<path fill-rule="evenodd" clip-rule="evenodd" d="M17.415 14.882C17.117 14.733 15.656 14.015 15.384 13.915C15.112 13.816 14.914 13.767 14.715 14.065C14.517 14.361 13.948 15.031 13.775 15.229C13.601 15.428 13.428 15.452 13.131 15.304C12.834 15.154 11.876 14.841 10.741 13.829C9.858 13.041 9.261 12.068 9.088 11.77C8.915 11.473 9.069 11.312 9.218 11.164C9.352 11.031 9.515 10.817 9.664 10.644C9.813 10.47 9.862 10.346 9.961 10.147C10.061 9.949 10.011 9.776 9.936 9.627C9.862 9.478 9.268 8.015 9.02 7.42C8.779 6.841 8.534 6.92 8.352 6.91C8.178 6.902 7.98 6.9 7.782 6.9C7.584 6.9 7.262 6.974 6.99 7.272C6.717 7.569 5.95 8.288 5.95 9.751C5.95 11.213 7.014 12.626 7.163 12.825C7.312 13.023 9.258 16.025 12.239 17.312C12.949 17.618 13.502 17.801 13.933 17.937C14.645 18.164 15.293 18.132 15.805 18.055C16.375 17.97 17.563 17.336 17.811 16.642C18.058 15.948 18.058 15.353 17.984 15.229C17.91 15.105 17.712 15.031 17.414 14.882H17.415ZM11.993 22.285H11.989C10.2184 22.2853 8.48037 21.8094 6.957 20.907L6.597 20.693L2.855 21.675L3.854 18.027L3.619 17.653C2.62914 16.0773 2.1053 14.2538 2.108 12.393C2.11 6.943 6.544 2.509 11.997 2.509C14.637 2.509 17.119 3.539 18.985 5.407C19.9054 6.32358 20.6349 7.41356 21.1313 8.6139C21.6277 9.81423 21.8811 11.1011 21.877 12.4C21.875 17.85 17.441 22.285 11.993 22.285ZM20.405 3.988C19.3032 2.87892 17.9922 1.99954 16.5481 1.4008C15.1039 0.802063 13.5553 0.495882 11.992 0.499999C5.438 0.499999 0.102 5.835 0.1 12.392C0.099 14.488 0.646 16.534 1.687 18.337L0 24.5L6.304 22.846C8.04788 23.7961 10.0021 24.294 11.988 24.294H11.993C18.547 24.294 23.883 18.959 23.885 12.401C23.8898 10.8383 23.5848 9.2901 22.9874 7.84603C22.3901 6.40197 21.5124 5.09067 20.405 3.988Z" fill="#D3D3D3"/>
</g>
<defs>
<clipPath id="clip0_3_8750">
<rect width="24" height="24" fill="white" transform="translate(0 0.5)"/>
</clipPath>
</defs>
</svg>
