<svg width="40" height="40" viewBox="0 0 40 40" fill="none" xmlns="http://www.w3.org/2000/svg">
<path d="M38.3333 22H1.66667C0.746663 22 0 21.104 0 20C0 18.896 0.746663 18 1.66667 18H38.3333C39.2533 18 40 18.896 40 20C40 21.104 39.2533 22 38.3333 22Z" fill="#2D2D2D"/>
<path d="M38.3333 10H1.66667C0.746663 10 0 9.104 0 8C0 6.896 0.746663 6 1.66667 6H38.3333C39.2533 6 40 6.896 40 8C40 9.104 39.2533 10 38.3333 10Z" fill="#2D2D2D"/>
<path d="M38.3333 34H1.66667C0.746663 34 0 33.104 0 32C0 30.896 0.746663 30 1.66667 30H38.3333C39.2533 30 40 30.896 40 32C40 33.104 39.2533 34 38.3333 34Z" fill="#2D2D2D"/>
</svg>
