<svg width="21" height="22" viewBox="0 0 21 22" fill="none" xmlns="http://www.w3.org/2000/svg">
<g clip-path="url(#clip0_3_8265)">
<path d="M10.5 5.09375C10.5 4.9197 10.4309 4.75278 10.3078 4.62971C10.1847 4.50664 10.0178 4.4375 9.84375 4.4375C9.6697 4.4375 9.50278 4.50664 9.37971 4.62971C9.25664 4.75278 9.1875 4.9197 9.1875 5.09375V12.3125C9.18754 12.4282 9.21815 12.5418 9.27623 12.6418C9.33432 12.7418 9.41781 12.8248 9.51825 12.8821L14.112 15.5071C14.2628 15.5886 14.4394 15.6079 14.6042 15.5608C14.7689 15.5138 14.9088 15.4042 14.9938 15.2554C15.0788 15.1066 15.1023 14.9305 15.0591 14.7646C15.016 14.5988 14.9097 14.4564 14.763 14.3679L10.5 11.9319V5.09375Z" fill="#FCD127"/>
<path d="M10.5 21.5C13.2848 21.5 15.9555 20.3938 17.9246 18.4246C19.8938 16.4555 21 13.7848 21 11C21 8.21523 19.8938 5.54451 17.9246 3.57538C15.9555 1.60625 13.2848 0.5 10.5 0.5C7.71523 0.5 5.04451 1.60625 3.07538 3.57538C1.10625 5.54451 0 8.21523 0 11C0 13.7848 1.10625 16.4555 3.07538 18.4246C5.04451 20.3938 7.71523 21.5 10.5 21.5ZM19.6875 11C19.6875 13.4367 18.7195 15.7736 16.9965 17.4965C15.2736 19.2195 12.9367 20.1875 10.5 20.1875C8.06332 20.1875 5.72645 19.2195 4.00346 17.4965C2.28047 15.7736 1.3125 13.4367 1.3125 11C1.3125 8.56332 2.28047 6.22645 4.00346 4.50346C5.72645 2.78047 8.06332 1.8125 10.5 1.8125C12.9367 1.8125 15.2736 2.78047 16.9965 4.50346C18.7195 6.22645 19.6875 8.56332 19.6875 11Z" fill="#FCD127"/>
</g>
<defs>
<clipPath id="clip0_3_8265">
<rect width="21" height="21" fill="white" transform="translate(0 0.5)"/>
</clipPath>
</defs>
</svg>
