<svg width="135" height="96" viewBox="0 0 135 96" fill="none" xmlns="http://www.w3.org/2000/svg">
<path d="M17.568 79.408L17.0518 80.2645L17.0605 80.2696L17.568 79.408ZM6.624 67.312L5.72741 67.7549L5.72957 67.7592L6.624 67.312ZM6.624 29.584L7.51844 30.0312L7.52058 30.0269L6.624 29.584ZM17.568 17.488L18.0756 18.3497L18.0842 18.3445L17.568 17.488ZM49.632 17.488L49.1158 18.3445L49.1245 18.3496L49.632 17.488ZM60.576 29.584L59.6794 30.0269L59.6816 30.0312L60.576 29.584ZM60.576 67.312L61.4704 67.7592L61.4726 67.7549L60.576 67.312ZM49.632 79.408L50.1396 80.2697L50.1482 80.2645L49.632 79.408ZM33.6 82.536C27.7424 82.536 22.5773 81.1981 18.0755 78.5464L17.0605 80.2696C21.9027 83.1219 27.4256 84.536 33.6 84.536V82.536ZM18.0842 78.5515C13.5869 75.8408 10.0644 71.9566 7.51843 66.8648L5.72957 67.7592C8.43164 73.1633 12.2051 77.3432 17.0518 80.2645L18.0842 78.5515ZM7.52058 66.8691C4.97853 61.723 3.688 55.5773 3.688 48.4H1.688C1.688 55.8147 3.02147 62.277 5.72742 67.7549L7.52058 66.8691ZM3.688 48.4C3.688 41.2223 4.97869 35.1107 7.51843 30.0312L5.72957 29.1368C3.02131 34.5533 1.688 40.9857 1.688 48.4H3.688ZM7.52058 30.0269C10.0667 24.8725 13.5867 20.9938 18.0755 18.3496L17.0605 16.6264C12.2053 19.4862 8.42928 23.6715 5.72742 29.1411L7.52058 30.0269ZM18.0842 18.3445C22.5847 15.6318 27.7467 14.264 33.6 14.264V12.264C27.4214 12.264 21.8953 13.7122 17.0518 16.6315L18.0842 18.3445ZM33.6 14.264C39.4534 14.264 44.6153 15.6318 49.1158 18.3445L50.1482 16.6315C45.3047 13.7122 39.7787 12.264 33.6 12.264V14.264ZM49.1245 18.3496C53.6133 20.9938 57.1333 24.8725 59.6794 30.0269L61.4726 29.1411C58.7707 23.6715 54.9947 19.4862 50.1395 16.6264L49.1245 18.3496ZM59.6816 30.0312C62.2213 35.1107 63.512 41.2223 63.512 48.4H65.512C65.512 40.9857 64.1787 34.5533 61.4704 29.1368L59.6816 30.0312ZM63.512 48.4C63.512 55.5773 62.2215 61.723 59.6794 66.8691L61.4726 67.7549C64.1785 62.277 65.512 55.8147 65.512 48.4H63.512ZM59.6816 66.8648C57.1356 71.9566 53.6132 75.8408 49.1158 78.5515L50.1482 80.2645C54.9949 77.3432 58.7684 73.1633 61.4704 67.7592L59.6816 66.8648ZM49.1245 78.5464C44.6227 81.1981 39.4576 82.536 33.6 82.536V84.536C39.7744 84.536 45.2973 83.1219 50.1395 80.2696L49.1245 78.5464ZM33.6 66.392C35.1435 66.392 36.5368 65.9868 37.7402 65.1515C38.9353 64.3219 39.886 63.1083 40.6214 61.5769C42.0793 58.5411 42.76 54.1121 42.76 48.4H40.76C40.76 54.0159 40.0807 58.0829 38.8186 60.7111C38.194 62.0117 37.4447 62.9221 36.5998 63.5085C35.7632 64.0892 34.7765 64.392 33.6 64.392V66.392ZM42.76 48.4C42.76 42.6879 42.0793 38.2589 40.6214 35.2231C39.886 33.6917 38.9353 32.4781 37.7402 31.6485C36.5368 30.8132 35.1435 30.408 33.6 30.408V32.408C34.7765 32.408 35.7632 32.7108 36.5998 33.2915C37.4447 33.8779 38.194 34.7883 38.8186 36.0889C40.0807 38.7171 40.76 42.7841 40.76 48.4H42.76ZM33.6 30.408C32.0565 30.408 30.6632 30.8132 29.4598 31.6485C28.2647 32.4781 27.314 33.6917 26.5786 35.2231C25.1207 38.2589 24.44 42.6879 24.44 48.4H26.44C26.44 42.7841 27.1193 38.7171 28.3814 36.0889C29.006 34.7883 29.7553 33.8779 30.6002 33.2915C31.4368 32.7108 32.4235 32.408 33.6 32.408V30.408ZM24.44 48.4C24.44 54.1121 25.1207 58.5411 26.5786 61.5769C27.314 63.1083 28.2647 64.3219 29.4598 65.1515C30.6632 65.9868 32.0565 66.392 33.6 66.392V64.392C32.4235 64.392 31.4368 64.0892 30.6002 63.5085C29.7553 62.9221 29.006 62.0117 28.3814 60.7111C27.1193 58.0829 26.44 54.0159 26.44 48.4H24.44ZM128.275 64.432H129.275V63.432H128.275V64.432ZM128.275 82V83H129.275V82H128.275ZM74.0348 82H73.0348V83H74.0348V82ZM74.0348 68.08L73.3528 67.3486L73.0348 67.6451V68.08H74.0348ZM98.1308 45.616L97.4559 44.8779L97.4489 44.8846L98.1308 45.616ZM102.643 40.336L101.772 39.8439L101.764 39.8586L101.756 39.8734L102.643 40.336ZM102.067 32.464L101.474 33.2691L102.067 32.464ZM90.7388 32.752L90.233 31.8893L90.2264 31.8932L90.2198 31.8972L90.7388 32.752ZM86.4187 37.36L85.9634 38.2503L86.8284 38.6927L87.2956 37.8408L86.4187 37.36ZM69.7148 28.816L68.8179 28.3736L68.3819 29.2575L69.2594 29.7063L69.7148 28.816ZM80.5628 17.488L81.0552 18.3584L81.0589 18.3562L80.5628 17.488ZM113.395 15.856L113.011 16.7795L113.395 15.856ZM123.091 23.248L122.279 23.8323L122.287 23.8428L123.091 23.248ZM124.051 44.464L124.927 44.9466L124.931 44.9391L124.051 44.464ZM114.451 55.696L115.131 56.4288L115.132 56.4277L114.451 55.696ZM105.043 64.432L104.362 63.6992L102.496 65.432H105.043V64.432ZM127.275 64.432V82H129.275V64.432H127.275ZM128.275 81H74.0348V83H128.275V81ZM75.0348 82V68.08H73.0348V82H75.0348ZM74.7167 68.8114L98.8127 46.3474L97.4489 44.8846L73.3528 67.3486L74.7167 68.8114ZM98.8055 46.354C101.073 44.2813 102.68 42.4269 103.529 40.7986L101.756 39.8734C101.07 41.1891 99.6689 42.8547 97.456 44.878L98.8055 46.354ZM103.513 40.8281C104.409 39.2441 104.891 37.6675 104.891 36.112H102.891C102.891 37.2445 102.541 38.4839 101.772 39.8439L103.513 40.8281ZM104.891 36.112C104.891 34.2646 104.137 32.7472 102.66 31.6589L101.474 33.2691C102.429 33.9728 102.891 34.8874 102.891 36.112H104.891ZM102.66 31.6589C101.216 30.5947 99.3174 30.12 97.0748 30.12V32.12C99.0561 32.12 100.486 32.5413 101.474 33.2691L102.66 31.6589ZM97.0748 30.12C94.5474 30.12 92.2575 30.7025 90.233 31.8893L91.2445 33.6147C92.932 32.6255 94.8661 32.12 97.0748 32.12V30.12ZM90.2198 31.8972C88.2659 33.0835 86.7074 34.7539 85.5419 36.8792L87.2956 37.8408C88.3061 35.9981 89.6276 34.5965 91.2577 33.6068L90.2198 31.8972ZM86.8741 36.4697L70.1701 27.9257L69.2594 29.7063L85.9634 38.2503L86.8741 36.4697ZM70.6116 29.2584C72.8867 24.6466 76.3577 21.0161 81.0552 18.3583L80.0703 16.6176C75.0398 19.4639 71.2788 23.3854 68.8179 28.3736L70.6116 29.2584ZM81.0589 18.3562C85.7974 15.6485 91.7584 14.264 98.9948 14.264V12.264C91.5111 12.264 85.1841 13.6955 80.0666 16.6198L81.0589 18.3562ZM98.9948 14.264C104.33 14.264 108.995 15.1113 113.011 16.7795L113.778 14.9325C109.474 13.1447 104.54 12.264 98.9948 12.264V14.264ZM113.011 16.7795C117.025 18.4467 120.098 20.8034 122.279 23.8323L123.902 22.6637C121.475 19.2926 118.085 16.7213 113.778 14.9325L113.011 16.7795ZM122.287 23.8428C124.519 26.8598 125.643 30.3602 125.643 34.384H127.643C127.643 29.9597 126.398 26.0362 123.895 22.6532L122.287 23.8428ZM125.643 34.384C125.643 37.7325 124.823 40.9298 123.171 43.9888L124.931 44.9391C126.735 41.5982 127.643 38.0755 127.643 34.384H125.643ZM123.175 43.9814C121.523 46.9789 118.414 50.6373 113.769 54.9643L115.132 56.4277C119.831 52.0507 123.122 48.2211 124.927 44.9466L123.175 43.9814ZM113.77 54.9632L104.362 63.6992L105.723 65.1648L115.131 56.4288L113.77 54.9632ZM105.043 65.432H128.275V63.432H105.043V65.432Z" fill="#454545"/>
<path d="M21.376 87.512C17.8347 87.512 14.6773 86.616 11.904 84.824C9.17333 82.9893 7.01867 80.344 5.44 76.888C3.86133 73.432 3.072 69.336 3.072 64.6C3.072 59.864 3.86133 55.768 5.44 52.312C7.01867 48.856 9.17333 46.232 11.904 44.44C14.6773 42.6053 17.8347 41.688 21.376 41.688C24.8747 41.688 27.9893 42.6053 30.72 44.44C33.4933 46.232 35.6693 48.856 37.248 52.312C38.8267 55.768 39.616 59.864 39.616 64.6C39.616 69.336 38.8267 73.432 37.248 76.888C35.6693 80.344 33.4933 82.9893 30.72 84.824C27.9893 86.616 24.8747 87.512 21.376 87.512ZM21.376 81.816C24.96 81.816 27.8187 80.344 29.952 77.4C32.128 74.456 33.216 70.1893 33.216 64.6C33.216 59.0107 32.128 54.744 29.952 51.8C27.8187 48.856 24.96 47.384 21.376 47.384C17.7493 47.384 14.848 48.856 12.672 51.8C10.5387 54.744 9.472 59.0107 9.472 64.6C9.472 70.1893 10.5387 74.456 12.672 77.4C14.848 80.344 17.7493 81.816 21.376 81.816ZM77.06 81.432V87H44.868V82.648L63.108 65.048C65.3267 62.9147 66.82 61.08 67.588 59.544C68.356 57.9653 68.74 56.3867 68.74 54.808C68.74 52.4613 67.908 50.648 66.244 49.368C64.6227 48.0453 62.276 47.384 59.204 47.384C54.2547 47.384 50.436 49.0053 47.748 52.248L43.396 48.472C45.1453 46.3387 47.428 44.6747 50.244 43.48C53.1027 42.2853 56.2813 41.688 59.78 41.688C64.4733 41.688 68.2067 42.8187 70.98 45.08C73.7533 47.2987 75.14 50.328 75.14 54.168C75.14 56.5573 74.628 58.8187 73.604 60.952C72.58 63.0853 70.6387 65.5173 67.78 68.248L54.084 81.432H77.06Z" fill="white"/>
</svg>
