<svg width="135" height="96" viewBox="0 0 135 96" fill="none" xmlns="http://www.w3.org/2000/svg">
<path d="M17.568 79.408L17.0518 80.2645L17.0605 80.2696L17.568 79.408ZM6.624 67.312L5.72741 67.7549L5.72957 67.7592L6.624 67.312ZM6.624 29.584L7.51844 30.0312L7.52058 30.0269L6.624 29.584ZM17.568 17.488L18.0756 18.3497L18.0842 18.3445L17.568 17.488ZM49.632 17.488L49.1158 18.3445L49.1245 18.3496L49.632 17.488ZM60.576 29.584L59.6794 30.0269L59.6816 30.0312L60.576 29.584ZM60.576 67.312L61.4704 67.7592L61.4726 67.7549L60.576 67.312ZM49.632 79.408L50.1396 80.2697L50.1482 80.2645L49.632 79.408ZM33.6 82.536C27.7424 82.536 22.5773 81.1981 18.0755 78.5464L17.0605 80.2696C21.9027 83.1219 27.4256 84.536 33.6 84.536V82.536ZM18.0842 78.5515C13.5869 75.8408 10.0644 71.9566 7.51843 66.8648L5.72957 67.7592C8.43164 73.1633 12.2051 77.3432 17.0518 80.2645L18.0842 78.5515ZM7.52058 66.8691C4.97853 61.723 3.688 55.5773 3.688 48.4H1.688C1.688 55.8147 3.02147 62.277 5.72742 67.7549L7.52058 66.8691ZM3.688 48.4C3.688 41.2223 4.97869 35.1107 7.51843 30.0312L5.72957 29.1368C3.02131 34.5533 1.688 40.9857 1.688 48.4H3.688ZM7.52058 30.0269C10.0667 24.8725 13.5867 20.9938 18.0755 18.3496L17.0605 16.6264C12.2053 19.4862 8.42928 23.6715 5.72742 29.1411L7.52058 30.0269ZM18.0842 18.3445C22.5847 15.6318 27.7467 14.264 33.6 14.264V12.264C27.4214 12.264 21.8953 13.7122 17.0518 16.6315L18.0842 18.3445ZM33.6 14.264C39.4534 14.264 44.6153 15.6318 49.1158 18.3445L50.1482 16.6315C45.3047 13.7122 39.7787 12.264 33.6 12.264V14.264ZM49.1245 18.3496C53.6133 20.9938 57.1333 24.8725 59.6794 30.0269L61.4726 29.1411C58.7707 23.6715 54.9947 19.4862 50.1395 16.6264L49.1245 18.3496ZM59.6816 30.0312C62.2213 35.1107 63.512 41.2223 63.512 48.4H65.512C65.512 40.9857 64.1787 34.5533 61.4704 29.1368L59.6816 30.0312ZM63.512 48.4C63.512 55.5773 62.2215 61.723 59.6794 66.8691L61.4726 67.7549C64.1785 62.277 65.512 55.8147 65.512 48.4H63.512ZM59.6816 66.8648C57.1356 71.9566 53.6132 75.8408 49.1158 78.5515L50.1482 80.2645C54.9949 77.3432 58.7684 73.1633 61.4704 67.7592L59.6816 66.8648ZM49.1245 78.5464C44.6227 81.1981 39.4576 82.536 33.6 82.536V84.536C39.7744 84.536 45.2973 83.1219 50.1395 80.2696L49.1245 78.5464ZM33.6 66.392C35.1435 66.392 36.5368 65.9868 37.7402 65.1515C38.9353 64.3219 39.886 63.1083 40.6214 61.5769C42.0793 58.5411 42.76 54.1121 42.76 48.4H40.76C40.76 54.0159 40.0807 58.0829 38.8186 60.7111C38.194 62.0117 37.4447 62.9221 36.5998 63.5085C35.7632 64.0892 34.7765 64.392 33.6 64.392V66.392ZM42.76 48.4C42.76 42.6879 42.0793 38.2589 40.6214 35.2231C39.886 33.6917 38.9353 32.4781 37.7402 31.6485C36.5368 30.8132 35.1435 30.408 33.6 30.408V32.408C34.7765 32.408 35.7632 32.7108 36.5998 33.2915C37.4447 33.8779 38.194 34.7883 38.8186 36.0889C40.0807 38.7171 40.76 42.7841 40.76 48.4H42.76ZM33.6 30.408C32.0565 30.408 30.6632 30.8132 29.4598 31.6485C28.2647 32.4781 27.314 33.6917 26.5786 35.2231C25.1207 38.2589 24.44 42.6879 24.44 48.4H26.44C26.44 42.7841 27.1193 38.7171 28.3814 36.0889C29.006 34.7883 29.7553 33.8779 30.6002 33.2915C31.4368 32.7108 32.4235 32.408 33.6 32.408V30.408ZM24.44 48.4C24.44 54.1121 25.1207 58.5411 26.5786 61.5769C27.314 63.1083 28.2647 64.3219 29.4598 65.1515C30.6632 65.9868 32.0565 66.392 33.6 66.392V64.392C32.4235 64.392 31.4368 64.0892 30.6002 63.5085C29.7553 62.9221 29.006 62.0117 28.3814 60.7111C27.1193 58.0829 26.44 54.0159 26.44 48.4H24.44ZM131.251 70.48V71.48H132.251V70.48H131.251ZM123.283 70.48V69.48H122.283V70.48H123.283ZM123.283 82V83H124.283V82H123.283ZM101.779 82H100.779V83H101.779V82ZM101.779 70.48H102.779V69.48H101.779V70.48ZM68.8508 70.48H67.8508V71.48H68.8508V70.48ZM68.8508 56.08L68.0101 55.5385L67.8508 55.7858V56.08H68.8508ZM95.4427 14.8V13.8H94.8974L94.6021 14.2584L95.4427 14.8ZM119.059 14.8L119.899 15.3419L120.893 13.8H119.059V14.8ZM94.4827 52.912L93.6423 52.3701L92.648 53.912H94.4827V52.912ZM102.931 52.912V53.912H103.931V52.912H102.931ZM102.931 43.6V42.6H101.931V43.6H102.931ZM123.283 43.6H124.283V42.6H123.283V43.6ZM123.283 52.912H122.283V53.912H123.283V52.912ZM131.251 52.912H132.251V51.912H131.251V52.912ZM131.251 69.48H123.283V71.48H131.251V69.48ZM122.283 70.48V82H124.283V70.48H122.283ZM123.283 81H101.779V83H123.283V81ZM102.779 82V70.48H100.779V82H102.779ZM101.779 69.48H68.8508V71.48H101.779V69.48ZM69.8508 70.48V56.08H67.8508V70.48H69.8508ZM69.6914 56.6215L96.2834 15.3415L94.6021 14.2584L68.0101 55.5385L69.6914 56.6215ZM95.4427 15.8H119.059V13.8H95.4427V15.8ZM118.218 14.2581L93.6423 52.3701L95.3232 53.4539L119.899 15.3419L118.218 14.2581ZM94.4827 53.912H102.931V51.912H94.4827V53.912ZM103.931 52.912V43.6H101.931V52.912H103.931ZM102.931 44.6H123.283V42.6H102.931V44.6ZM122.283 43.6V52.912H124.283V43.6H122.283ZM123.283 53.912H131.251V51.912H123.283V53.912ZM130.251 52.912V70.48H132.251V52.912H130.251Z" fill="#454545"/>
<path d="M21.376 87.512C17.8347 87.512 14.6773 86.616 11.904 84.824C9.17333 82.9893 7.01867 80.344 5.44 76.888C3.86133 73.432 3.072 69.336 3.072 64.6C3.072 59.864 3.86133 55.768 5.44 52.312C7.01867 48.856 9.17333 46.232 11.904 44.44C14.6773 42.6053 17.8347 41.688 21.376 41.688C24.8747 41.688 27.9893 42.6053 30.72 44.44C33.4933 46.232 35.6693 48.856 37.248 52.312C38.8267 55.768 39.616 59.864 39.616 64.6C39.616 69.336 38.8267 73.432 37.248 76.888C35.6693 80.344 33.4933 82.9893 30.72 84.824C27.9893 86.616 24.8747 87.512 21.376 87.512ZM21.376 81.816C24.96 81.816 27.8187 80.344 29.952 77.4C32.128 74.456 33.216 70.1893 33.216 64.6C33.216 59.0107 32.128 54.744 29.952 51.8C27.8187 48.856 24.96 47.384 21.376 47.384C17.7493 47.384 14.848 48.856 12.672 51.8C10.5387 54.744 9.472 59.0107 9.472 64.6C9.472 70.1893 10.5387 74.456 12.672 77.4C14.848 80.344 17.7493 81.816 21.376 81.816ZM84.7355 75.992H76.2235V87H70.0155V75.992H45.1195V71.512L68.0315 42.2H74.9435L52.9915 70.488H70.2075V60.76H76.2235V70.488H84.7355V75.992Z" fill="white"/>
</svg>
