<svg width="80" height="75" viewBox="0 0 80 75" fill="none" xmlns="http://www.w3.org/2000/svg">
<circle cx="54" cy="26" r="26" fill="#FFEFC7"/>
<g clip-path="url(#clip0_3_8404)">
<path d="M0.221358 11.4213L4.8898 19.5906C5.04727 19.8666 5.31084 20.0664 5.61906 20.1437L9.97448 21.2325L24.9126 36.1707L26.5632 34.5206L11.3912 19.3491C11.2419 19.1993 11.0547 19.0932 10.8497 19.0418L6.66471 17.9919L2.69001 11.0324L6.09772 7.62471L13.0601 11.6033L14.1105 15.7882C14.1614 15.9937 14.268 16.1814 14.4173 16.3308L29.5892 31.5027L31.2393 29.8521L16.3012 14.914L15.2123 10.561C15.135 10.2523 14.9353 9.98822 14.6592 9.83027L6.48948 5.16231C6.03387 4.90306 5.46063 4.97987 5.08904 5.35002L0.421078 10.0185C0.0456435 10.3877 -0.0359725 10.9619 0.221358 11.4213Z" fill="#2D2D2D"/>
<path d="M48.7425 28.0007L23.0676 53.6761L21.417 52.0255L47.0925 26.3506L48.7425 28.0007Z" fill="#2D2D2D"/>
<path d="M18.5731 54.5846C18.3619 54.2332 17.9826 54.0186 17.5726 54.0186H10.5704C10.1609 54.0186 9.78114 54.2332 9.57038 54.5846L6.06906 60.4197C5.84677 60.7894 5.84677 61.2517 6.06906 61.6218L9.57038 67.4569C9.78114 67.8079 10.1609 68.023 10.5704 68.023H17.5726C17.9826 68.023 18.3619 67.8079 18.5731 67.4569L22.0739 61.6218C22.2962 61.2517 22.2962 60.7894 22.0739 60.4197L18.5731 54.5846ZM16.9125 65.6887H11.231L8.43016 61.0208L11.231 56.3523H16.9125L19.7133 61.0208L16.9125 65.6887Z" fill="#2D2D2D"/>
<path d="M56.0848 33.0115C63.7927 33.0374 70.0628 26.8097 70.0887 19.1018C70.0925 17.9284 69.9485 16.7599 69.66 15.6225C69.5044 14.997 68.8712 14.6163 68.2456 14.7718C68.0401 14.8232 67.8529 14.9293 67.7031 15.0786L60.4383 22.3386L54.6743 20.4177L52.752 14.6551L60.0168 7.38892C60.4724 6.93283 60.4719 6.19397 60.0158 5.73836C59.8656 5.58809 59.6764 5.48151 59.4695 5.43062C51.9944 3.53761 44.4008 8.06249 42.5077 15.5371C42.2202 16.6711 42.0766 17.8367 42.0805 19.0067C42.0833 19.9256 42.1779 20.8416 42.3642 21.7413L16.8054 47.2996C15.9057 47.1138 14.9897 47.0192 14.0712 47.0159C6.33644 47.0159 0.0664062 53.2859 0.0664062 61.0207C0.0664062 68.755 6.33644 75.025 14.0712 75.025C21.8056 75.025 28.0756 68.755 28.0756 61.0207C28.0727 60.1018 27.9777 59.1858 27.7919 58.2861L33.9107 52.1673L36.5867 54.8433C37.0428 55.2989 37.7812 55.2989 38.2373 54.8433L38.8206 54.2595C39.3324 53.7511 40.1596 53.7511 40.6714 54.2595C41.1827 54.7694 41.1836 55.5971 40.6738 56.1084C40.6733 56.1088 40.6723 56.1098 40.6714 56.1108L40.0881 56.6941C39.6325 57.1497 39.6325 57.8885 40.0881 58.3442L54.0098 72.2659C57.6715 75.9612 63.6353 75.9881 67.3306 72.3264C71.0254 68.6647 71.0523 62.7005 67.3906 59.0057C67.3709 58.9856 67.3507 58.9654 67.3306 58.9452L53.4088 45.0239C52.9532 44.5683 52.2143 44.5683 51.7587 45.0239L51.1754 45.6073C50.6631 46.1162 49.8364 46.1162 49.3241 45.6073C48.8133 45.0974 48.8119 44.2697 49.3217 43.7589C49.3227 43.7579 49.3236 43.7575 49.3241 43.7565L49.9079 43.1727C50.3635 42.7171 50.3635 41.9782 49.9079 41.5226L47.2319 38.8466L53.3507 32.7278C54.2504 32.9136 55.1664 33.0086 56.0848 33.0115ZM60.6702 72.6913C59.8224 72.6898 58.9817 72.5367 58.1881 72.2385L67.3027 63.1235C68.6782 66.7823 66.8274 70.8631 63.1686 72.2385C62.3702 72.5386 61.5238 72.6922 60.6702 72.6913ZM47.4489 42.3594C46.1565 43.901 46.3591 46.1987 47.9006 47.4907C49.2555 48.6261 51.2301 48.6251 52.5835 47.4873L65.6805 60.5958C65.8226 60.7384 65.9556 60.8886 66.0842 61.0413L56.1059 71.0196C55.9528 70.8914 55.8025 70.7584 55.6599 70.6158L42.5529 57.5078C43.8453 55.9662 43.6427 53.6685 42.1011 52.3766C40.7463 51.2407 38.7712 51.2421 37.4178 52.3795L35.5507 50.5124L45.5813 40.4967L47.4489 42.3594ZM52.1615 30.6216L25.6867 57.0911C25.3962 57.3811 25.2795 57.8021 25.3784 58.2001C26.9796 64.4879 23.1801 70.8832 16.8918 72.4839C10.604 74.085 4.20866 70.2855 2.60755 63.9973C1.00691 57.7095 4.80638 51.3141 11.0947 49.713C12.9968 49.2291 14.9897 49.2291 16.8918 49.713C17.2898 49.8105 17.7099 49.6938 18.0008 49.4053L44.4694 22.9353C44.7594 22.6453 44.876 22.2243 44.7762 21.8268C43.1861 15.6124 46.9347 9.28577 53.149 7.69522C54.3234 7.39516 55.538 7.27994 56.7478 7.35531L50.5916 13.514C50.279 13.826 50.1696 14.2883 50.3093 14.7075L52.643 21.7101C52.7597 22.0582 53.0333 22.3318 53.3819 22.4475L60.3845 24.7818C60.8032 24.9215 61.2655 24.8125 61.5781 24.5004L67.7343 18.3442C67.7482 18.5669 67.7554 18.7873 67.7554 19.0067C67.7881 25.4193 62.6165 30.6442 56.2039 30.6773C55.2125 30.6821 54.2245 30.5602 53.2643 30.3144C52.8663 30.215 52.4452 30.3312 52.1552 30.6211H52.1615V30.6216Z" fill="#2D2D2D"/>
<path d="M60.4134 63.6965L58.7629 65.3471L47.0928 53.6769L48.7429 52.0264L60.4134 63.6965Z" fill="#2D2D2D"/>
</g>
<defs>
<clipPath id="clip0_3_8404">
<rect width="70" height="70" fill="white" transform="translate(0 5)"/>
</clipPath>
</defs>
</svg>
