<svg width="90" height="74" viewBox="0 0 90 74" fill="none" xmlns="http://www.w3.org/2000/svg">
<circle cx="64" cy="26" r="26" fill="#FFEFC7"/>
<path d="M5.89465 48.5446L8.22798 41.5446C8.38665 41.0683 8.83203 40.747 9.33398 40.7466H15.1673C15.8116 40.7466 16.334 41.269 16.334 41.9132V47.7466C16.3341 48.327 15.9076 48.8192 15.333 48.9016L7.16632 50.0682C7.11148 50.0761 7.05607 50.08 7.00065 50.0799C6.35636 50.0794 5.83442 49.5566 5.83486 48.9123C5.83501 48.7874 5.85513 48.6631 5.89465 48.5446ZM14.0007 46.7351V43.0799H10.1752L8.70398 47.4911L14.0007 46.7351Z" fill="#2D2D2D"/>
<path d="M2.33334 25.5797C1.83138 25.5793 1.386 25.258 1.22733 24.7817L0.0606689 21.2817C0.0207062 21.1629 0.000297546 21.0385 0 20.913V16.2464C0 15.6021 0.522377 15.0797 1.16667 15.0797H53.4473C55.3774 11.7337 59.6546 10.5859 63.0006 12.516C65.1675 13.7659 66.5019 16.0781 66.5 18.5797V45.413H68.8333C69.4776 45.413 70 45.9354 70 46.5797V60.5797C70 61.224 69.4776 61.7464 68.8333 61.7464H67.6667V64.0797H68.8333V66.413H64.1667V64.0797H65.3333V61.7464H60.55C59.9057 64.9029 56.8244 66.9395 53.6678 66.2952C50.5113 65.6509 48.4747 62.5696 49.119 59.413C49.7633 56.2565 52.8446 54.2199 56.0012 54.8642C58.2921 55.3319 60.0823 57.1221 60.55 59.413H63V52.413H37.8163L35 55.2294V59.413H37.45C38.0943 56.2565 41.1756 54.2199 44.3322 54.8642C47.4887 55.5085 49.5253 58.5898 48.881 61.7464C48.2367 64.9029 45.1554 66.9395 41.9988 66.2952C39.7079 65.8275 37.9177 64.0373 37.45 61.7464H23.3333V64.0797H24.5V66.413H19.8333V64.0797H21V61.7464H16.2167C15.5756 64.9037 12.4965 66.9433 9.33917 66.3022C7.04361 65.8361 5.24942 64.0419 4.78333 61.7464H1.16667C0.522377 61.7464 0 61.224 0 60.5797V48.913C0 48.7644 0.0281448 48.6171 0.0828323 48.479L4.7495 36.8124C4.92698 36.3695 5.35617 36.0794 5.83334 36.0797H19.8333C20.4776 36.0797 21 36.6021 21 37.2464V45.413H40.8333V38.2544C40.8379 34.4779 43.8982 31.4176 47.6747 31.413H52.5V29.9069L30.135 22.0797H9.00667L8.106 24.7817C7.94734 25.258 7.50196 25.5793 7 25.5797H5.83334V27.913C5.83334 28.5573 5.31096 29.0797 4.66667 29.0797C4.02238 29.0797 3.5 29.6021 3.5 30.2464C3.5 30.8907 4.02238 31.413 4.66667 31.413C5.31096 31.413 5.83334 30.8907 5.83334 30.2464H8.16667C8.16623 32.1794 6.59896 33.7461 4.66594 33.7456C2.73292 33.7452 1.16623 32.1779 1.16667 30.2449C1.16696 28.7619 2.10175 27.4401 3.5 26.9457V25.5796H2.33334V25.5797ZM54.8333 57.0797C52.9003 57.0797 51.3333 58.6467 51.3333 60.5797C51.3333 62.5127 52.9003 64.0797 54.8333 64.0797C56.7664 64.0797 58.3333 62.5127 58.3333 60.5797C58.3333 58.6467 56.7664 57.0797 54.8333 57.0797ZM43.1667 64.0797C45.0997 64.0797 46.6667 62.5127 46.6667 60.5797C46.6667 58.6467 45.0997 57.0797 43.1667 57.0797C41.2336 57.0797 39.6667 58.6467 39.6667 60.5797C39.6667 62.5127 41.2336 64.0797 43.1667 64.0797ZM10.5 64.0797C12.433 64.0797 14 62.5127 14 60.5797C14 58.6467 12.433 57.0797 10.5 57.0797C8.56698 57.0797 7 58.6467 7 60.5797C7 62.5127 8.56698 64.0797 10.5 64.0797ZM18.6667 38.413H6.62317L2.33334 49.137V53.5797H4.66667V55.913H2.33334V59.413H4.78333C5.42442 56.2558 8.50354 54.2161 11.6608 54.8572C13.9564 55.3233 15.7506 57.1175 16.2167 59.413H18.6667V38.413ZM64.1667 18.5797C64.1667 16.0024 62.0773 13.913 59.5 13.913C56.9227 13.913 54.8333 16.0024 54.8333 18.5797V45.413H64.1667V18.5797ZM65.3333 59.413H67.6667V52.413H65.3333V59.413ZM21 59.413H23.3333V52.413H21V59.413ZM21 47.7464V50.0797H24.5C25.1443 50.0797 25.6667 50.6021 25.6667 51.2464V59.413H32.6667V54.7464C32.6667 54.4369 32.7897 54.1403 33.0085 53.9215L36.5085 50.4215C36.7272 50.2028 37.0239 50.0797 37.3333 50.0797H67.6667V47.7464H21ZM47.8333 33.7464H47.6747C45.186 33.749 43.1693 35.7657 43.1667 38.2544V39.5797H47.8333V33.7464ZM50.1667 33.7464V40.7464C50.1667 41.3907 49.6443 41.913 49 41.913H43.1667V45.413H52.5V33.7464H50.1667ZM52.5 27.4359V22.0797H37.198L52.5 27.4359ZM16.3333 19.7464H52.5V17.413H16.3333V19.7464ZM9.33334 19.7464H14V17.413H9.33334V19.7464ZM6.15884 23.2464L7 20.724V17.413H2.33334V20.724L3.1745 23.2464H6.15884Z" fill="#2D2D2D"/>
</svg>
