<svg width="75" height="75" viewBox="0 0 75 75" fill="none" xmlns="http://www.w3.org/2000/svg">
<circle cx="49" cy="26" r="26" fill="#FFEFC7"/>
<g clip-path="url(#clip0_3_8391)">
<path d="M35 74.9264C15.7004 74.9264 0 59.4668 0 40.4632C0 21.4596 15.7004 6 35 6C54.2996 6 70 21.4596 70 40.4632C70 59.4668 54.2996 74.9264 35 74.9264ZM35 8.87193C17.3104 8.87193 2.91667 23.0449 2.91667 40.4632C2.91667 57.8815 17.3104 72.0545 35 72.0545C52.6896 72.0545 67.0833 57.8815 67.0833 40.4632C67.0833 23.0449 52.6896 8.87193 35 8.87193Z" fill="#2D2D2D"/>
<path d="M51.041 57.6954C50.6677 57.6954 50.2943 57.5546 50.0085 57.276L33.9668 41.4804C33.6956 41.2105 33.541 40.8457 33.541 40.4637V18.9242C33.541 18.1316 34.1943 17.4883 34.9993 17.4883C35.8043 17.4883 36.4577 18.1316 36.4577 18.9242V39.8693L52.0735 55.2456C52.6423 55.8056 52.6423 56.716 52.0735 57.276C51.7877 57.5546 51.4143 57.6954 51.041 57.6954Z" fill="#2D2D2D"/>
</g>
<defs>
<clipPath id="clip0_3_8391">
<rect width="70" height="68.9264" fill="white" transform="translate(0 6)"/>
</clipPath>
</defs>
</svg>
