<svg width="80" height="75" viewBox="0 0 80 75" fill="none" xmlns="http://www.w3.org/2000/svg">
<circle cx="54" cy="26" r="26" fill="#FFEFC7"/>
<path d="M51.7761 50.3518L49.0346 49.7645L49.0248 49.7612L42.4491 48.3546C42.4935 48.0325 42.5169 47.7079 42.5191 47.3828V44.3291C44.4927 43.0684 46.1172 41.3313 47.243 39.2779C48.3688 37.2245 48.9597 34.9207 48.9613 32.5789V30.0906H50.4636C50.5893 30.0907 50.7138 30.066 50.8299 30.0179C50.9461 29.9699 51.0516 29.8994 51.1405 29.8105C51.2294 29.7216 51.2999 29.6161 51.3479 29.4999C51.396 29.3838 51.4207 29.2593 51.4206 29.1336V25.8523C51.4207 25.7266 51.396 25.6022 51.3479 25.486C51.2999 25.3699 51.2294 25.2643 51.1405 25.1755C51.0516 25.0866 50.9461 25.0161 50.8299 24.968C50.7138 24.9199 50.5893 24.8952 50.4636 24.8953H49.7729C49.7331 21.6051 48.5935 18.4229 46.5357 15.8554C44.4779 13.2879 41.6201 11.4827 38.4176 10.7274V8.55469C38.4176 8.42899 38.3929 8.30451 38.3449 8.18836C38.2968 8.07222 38.2263 7.96669 38.1374 7.8778C38.0485 7.78892 37.943 7.71843 37.8269 7.67036C37.7107 7.62229 37.5862 7.59758 37.4605 7.59766H32.5387C32.2848 7.59766 32.0414 7.69849 31.8619 7.87796C31.6825 8.05744 31.5816 8.30087 31.5816 8.55469V10.7274C28.3791 11.4827 25.5214 13.2879 23.4635 15.8554C21.4057 18.4229 20.2662 21.6051 20.2263 24.8953H19.5356C19.4099 24.8952 19.2854 24.9199 19.1693 24.968C19.0532 25.0161 18.9476 25.0866 18.8587 25.1755C18.7699 25.2643 18.6994 25.3699 18.6513 25.486C18.6032 25.6022 18.5785 25.7266 18.5786 25.8523V29.1336C18.5785 29.2593 18.6032 29.3838 18.6513 29.4999C18.6994 29.6161 18.7699 29.7216 18.8587 29.8105C18.9476 29.8994 19.0532 29.9699 19.1693 30.0179C19.2854 30.066 19.4099 30.0907 19.5356 30.0906H21.0379V32.5789C21.0395 34.9207 21.6304 37.2245 22.7562 39.2779C23.882 41.3313 25.5066 43.0684 27.4801 44.3291V47.3828C27.4823 47.7079 27.5057 48.0325 27.5501 48.3546L20.9745 49.7612H20.9673L18.2242 50.3485C16.543 50.7135 15.0367 51.6412 13.9543 52.9784C12.8719 54.3155 12.2783 55.982 12.2715 57.7023V71.4453C12.2715 71.6991 12.3723 71.9426 12.5518 72.122C12.7313 72.3015 12.9747 72.4023 13.2285 72.4023H56.7707C57.0245 72.4023 57.2679 72.3015 57.4474 72.122C57.6269 71.9426 57.7277 71.6991 57.7277 71.4453V57.7023C57.7203 55.9827 57.1265 54.317 56.0444 52.9806C54.9623 51.6441 53.4566 50.7167 51.7761 50.3518ZM47.8588 24.8953H43.3395V19.2898C43.3395 19.036 43.2386 18.7926 43.0591 18.6131C42.8797 18.4336 42.6362 18.3328 42.3824 18.3328C42.1286 18.3328 41.8852 18.4336 41.7057 18.6131C41.5262 18.7926 41.4254 19.036 41.4254 19.2898V24.8953H38.4176V12.6874C41.1019 13.4239 43.4742 15.0127 45.177 17.2146C46.8799 19.4165 47.8211 22.1121 47.8588 24.8953ZM33.4957 9.51172H36.5035V24.8953H33.4957V9.51172ZM31.5816 12.688V24.8953H28.5738V19.2898C28.5738 19.036 28.473 18.7926 28.2935 18.6131C28.114 18.4336 27.8706 18.3328 27.6168 18.3328C27.363 18.3328 27.1196 18.4336 26.9401 18.6131C26.7606 18.7926 26.6598 19.036 26.6598 19.2898V24.8953H22.1404C22.1781 22.1121 23.1193 19.4165 24.8221 17.2148C26.525 15.013 28.8973 13.4242 31.5816 12.688ZM20.4927 26.8094H49.5066V28.1766H20.4927V26.8094ZM22.9536 32.5789V30.0906H47.0473V32.5789C47.0473 35.7741 45.778 38.8385 43.5186 41.0979C41.2592 43.3573 38.1948 44.6266 34.9996 44.6266C31.8044 44.6266 28.74 43.3573 26.4806 41.0979C24.2213 38.8385 22.952 35.7741 22.952 32.5789H22.9536ZM34.9996 46.5352C36.9295 46.537 38.8386 46.1365 40.6051 45.3594V47.3828C40.6051 48.8695 40.0145 50.2952 38.9633 51.3465C37.912 52.3977 36.4863 52.9883 34.9996 52.9883C33.5129 52.9883 32.0872 52.3977 31.0359 51.3465C29.9847 50.2952 29.3941 48.8695 29.3941 47.3828V45.3594C31.1606 46.1365 33.0697 46.537 34.9996 46.5352ZM14.1855 57.7023C14.1914 56.4202 14.6345 55.1785 15.4416 54.1822C16.2487 53.186 17.3715 52.4949 18.6245 52.2232L20.2176 51.882V70.4883H14.1855V57.7023ZM22.1316 51.4723L28.0379 50.208C28.5407 51.4414 29.3616 52.5194 30.4168 53.3321C31.472 54.1449 32.7239 54.6633 34.0448 54.8345V70.4883H22.1316V51.4723ZM35.9566 70.4883V54.8345C37.2776 54.6634 38.5295 54.145 39.5847 53.3323C40.64 52.5195 41.4608 51.4414 41.9635 50.208L47.8698 51.4723V70.4883H35.9566ZM55.8137 70.4883H49.7816V51.8825L51.3752 52.2237C52.6281 52.4956 53.7507 53.1866 54.5577 54.1827C55.3647 55.1788 55.8077 56.4204 55.8137 57.7023V70.4883Z" fill="#2D2D2D"/>
<path d="M53.4902 60.813C53.3645 60.8129 53.2401 60.8376 53.1239 60.8857C53.0078 60.9338 52.9022 61.0043 52.8134 61.0931C52.7245 61.182 52.654 61.2875 52.6059 61.4037C52.5578 61.5198 52.5331 61.6443 52.5332 61.77V65.1907C52.5332 65.4445 52.634 65.688 52.8135 65.8674C52.993 66.0469 53.2364 66.1478 53.4902 66.1478C53.7441 66.1478 53.9875 66.0469 54.167 65.8674C54.3464 65.688 54.4473 65.4445 54.4473 65.1907V61.77C54.4473 61.5162 54.3464 61.2728 54.167 61.0933C53.9875 60.9138 53.7441 60.813 53.4902 60.813Z" fill="#2D2D2D"/>
<path d="M30.5488 58.6372H25.627C25.3731 58.6372 25.1297 58.738 24.9502 58.9175C24.7708 59.097 24.6699 59.3404 24.6699 59.5942C24.6699 59.8481 24.7708 60.0915 24.9502 60.271C25.1297 60.4504 25.3731 60.5513 25.627 60.5513H30.5488C30.8026 60.5513 31.0461 60.4504 31.2256 60.271C31.405 60.0915 31.5059 59.8481 31.5059 59.5942C31.5059 59.3404 31.405 59.097 31.2256 58.9175C31.0461 58.738 30.8026 58.6372 30.5488 58.6372Z" fill="#2D2D2D"/>
</svg>
