<svg width="114" height="473" viewBox="0 0 114 473" fill="none" xmlns="http://www.w3.org/2000/svg">
<path d="M86.975 410.225L86.975 443.55L111 451.765L111 473L1.72499 433.94L1.72499 418.285L111 379.225L111 401.545L86.975 410.225ZM69.925 438.125L69.925 414.875L45.745 422.935L28.695 426.19L28.695 426.965L45.9 430.22L69.925 438.125ZM27.765 296.847C30.4517 296.847 33.1383 297.209 35.825 297.932C38.5117 298.552 40.9917 299.637 43.265 301.187C45.435 302.737 47.3983 304.752 49.155 307.232C50.8083 309.712 52.0483 312.709 52.875 316.222L53.805 316.222C54.3217 313.122 55.2 310.177 56.44 307.387C57.68 304.597 59.385 302.169 61.555 300.102C63.725 298.036 66.36 296.434 69.46 295.297C72.56 294.057 76.2283 293.437 80.465 293.437C86.045 293.437 90.9017 294.626 95.035 297.002C99.065 299.379 102.372 302.582 104.955 306.612C107.538 310.539 109.45 315.034 110.69 320.097C111.93 325.161 112.55 330.379 112.55 335.752C112.55 337.509 112.55 339.782 112.55 342.572C112.55 345.259 112.447 348.204 112.24 351.407C112.137 354.507 111.93 357.711 111.62 361.017C111.31 364.221 110.845 367.166 110.225 369.852L3.27499 369.852C2.96499 367.889 2.65499 365.667 2.34499 363.187C2.03499 360.604 1.77665 357.866 1.56999 354.972C1.36333 352.079 1.20832 349.134 1.10499 346.137C1.00165 343.037 0.949988 339.989 0.949988 336.992C0.949988 331.929 1.36332 327.021 2.18999 322.267C2.91332 317.411 4.25665 313.122 6.21998 309.402C8.18332 305.579 10.9217 302.531 14.435 300.257C17.9483 297.984 22.3917 296.847 27.765 296.847ZM95.035 335.597C95.035 333.014 94.725 330.534 94.105 328.157C93.485 325.677 92.555 323.507 91.315 321.647C89.9717 319.787 88.3183 318.289 86.355 317.152C84.3917 316.016 82.0667 315.447 79.38 315.447C75.97 315.447 73.2833 316.119 71.32 317.462C69.3567 318.806 67.8583 320.562 66.825 322.732C65.6883 324.902 64.965 327.331 64.655 330.017C64.345 332.704 64.19 335.391 64.19 338.077L64.19 349.392L94.105 349.392C94.3117 348.876 94.4667 348.049 94.57 346.912C94.6733 345.776 94.7767 344.587 94.88 343.347C94.88 342.004 94.9317 340.661 95.035 339.317C95.035 337.871 95.035 336.631 95.035 335.597ZM48.07 342.572C48.07 341.126 48.0183 339.472 47.915 337.612C47.8117 335.649 47.6567 334.047 47.45 332.807C46.21 328.881 44.35 325.522 41.87 322.732C39.39 319.839 36.135 318.392 32.105 318.392C29.4183 318.392 27.1967 318.909 25.44 319.942C23.6833 320.976 22.2883 322.371 21.255 324.127C20.2217 325.781 19.4983 327.692 19.085 329.862C18.6717 332.032 18.465 334.306 18.465 336.682C18.465 339.369 18.5167 341.849 18.62 344.122C18.7233 346.396 18.8783 348.152 19.085 349.392L48.07 349.392L48.07 342.572ZM56.75 281.685C38.6667 281.685 24.7683 277.707 15.055 269.75C5.23832 261.794 0.329983 250.427 0.329982 235.65C0.329982 227.9 1.67332 221.132 4.35999 215.345C7.04665 209.559 10.87 204.754 15.83 200.93C20.79 197.107 26.7316 194.265 33.655 192.405C40.5783 190.545 48.2767 189.615 56.75 189.615C74.8333 189.615 88.7833 193.645 98.6 201.705C108.313 209.662 113.17 220.977 113.17 235.65C113.17 243.504 111.827 250.324 109.14 256.11C106.453 261.897 102.63 266.702 97.67 270.525C92.71 274.245 86.7683 277.035 79.845 278.895C72.9217 280.755 65.2233 281.685 56.75 281.685ZM56.75 259.365C62.2267 259.365 67.29 258.9 71.94 257.97C76.4867 257.04 80.4133 255.645 83.72 253.785C87.0267 251.822 89.61 249.342 91.47 246.345C93.33 243.349 94.26 239.784 94.26 235.65C94.26 228.107 91.315 222.269 85.425 218.135C79.535 214.002 69.9767 211.935 56.75 211.935C51.48 211.935 46.5717 212.4 42.025 213.33C37.4783 214.157 33.5 215.5 30.09 217.36C26.68 219.22 24.045 221.649 22.185 224.645C20.2217 227.642 19.24 231.31 19.24 235.65C19.24 243.194 22.2883 249.032 28.385 253.165C34.3783 257.299 43.8333 259.365 56.75 259.365ZM2.49998 115.537L2.49998 95.3873L72.56 95.3873C79.5866 95.3873 85.6316 96.3173 90.695 98.1773C95.7583 100.037 99.9433 102.621 103.25 105.927C106.557 109.234 108.985 113.264 110.535 118.017C112.085 122.771 112.86 127.989 112.86 133.672C112.86 161.159 100.305 174.902 75.195 174.902L2.49998 174.902L2.49998 153.667L71.01 153.667C75.2467 153.667 78.8633 153.306 81.86 152.582C84.7533 151.756 87.13 150.516 88.99 148.862C90.7467 147.209 92.0383 145.142 92.865 142.662C93.5883 140.182 93.95 137.289 93.95 133.982C93.95 127.472 92.1417 122.771 88.525 119.877C84.9083 116.984 79.07 115.537 71.01 115.537L2.49998 115.537ZM21.41 0.22456L21.41 31.8446L111 31.8446L111 53.0796L21.41 53.0796L21.41 84.8546L2.49998 84.8546L2.49997 0.224561L21.41 0.22456Z" fill="#D3D0D0" fill-opacity="0.2"/>
</svg>
