<svg width="76" height="574" viewBox="0 0 76 574" fill="none" xmlns="http://www.w3.org/2000/svg">
<path opacity="0.5" d="M0.399995 573.844L0.399993 548.356L56.236 548.356L56.236 514.228L76 514.228L76 573.844L0.399995 573.844ZM0.399992 507.188L0.399991 481.7L76 481.7L76 507.188L0.399992 507.188ZM56.776 406.574L76 406.574L76 469.43L0.39999 469.43L0.399987 407.978L19.624 407.978L19.624 444.374L28.48 444.374L28.48 412.406L46.84 412.406L46.84 444.374L56.776 444.374L56.776 406.574ZM36.472 336.282C38.128 331.818 40.54 328.362 43.708 325.914C46.876 323.466 50.692 322.242 55.156 322.242C61.78 322.242 66.928 324.978 70.6 330.45C74.2 335.922 76 343.842 76 354.21L76 396.762L0.399987 396.762L0.399985 356.37C0.399985 346.29 2.19998 338.694 5.79999 333.582C9.39999 328.398 14.188 325.806 20.164 325.806C23.692 325.806 26.86 326.706 29.668 328.506C32.476 330.234 34.744 332.826 36.472 336.282ZM18.22 371.706L29.452 371.706L29.452 359.826C29.452 354.282 27.58 351.51 23.836 351.51C20.092 351.51 18.22 354.282 18.22 359.826L18.22 371.706ZM58.18 356.37C58.18 350.754 56.2 347.946 52.24 347.946C48.28 347.946 46.3 350.754 46.3 356.37L46.3 371.706L58.18 371.706L58.18 356.37ZM0.39998 238.711L76 238.711L76 264.199L48.136 264.199L48.136 287.743L76 287.743L76 313.231L0.399983 313.231L0.399982 287.743L27.184 287.743L27.184 264.199L0.399981 264.199L0.39998 238.711ZM56.776 163.574L76 163.574L76 226.43L0.39998 226.43L0.399977 164.978L19.624 164.978L19.624 201.374L28.48 201.374L28.48 169.406L46.84 169.406L46.84 201.374L56.776 201.374L56.776 163.574ZM56.992 121.362L56.992 128.274L76 128.274L76 153.762L0.399976 153.762L0.399975 117.366C0.399975 110.382 1.55197 104.298 3.85597 99.114C6.15997 93.93 9.47197 89.934 13.792 87.126C18.112 84.318 23.152 82.914 28.912 82.914C34.312 82.914 39.028 84.138 43.06 86.586C47.092 89.034 50.296 92.562 52.672 97.17L76 81.294L76 108.51L56.992 121.362ZM28.912 108.618C26.104 108.618 23.944 109.482 22.432 111.21C20.848 112.938 20.056 115.53 20.056 118.986L20.056 128.274L37.768 128.274L37.768 118.986C37.768 115.53 37.012 112.938 35.5 111.21C33.916 109.482 31.72 108.618 28.912 108.618ZM56.992 40.8893L56.992 47.8013L76 47.8013L76 73.2893L0.399973 73.2893L0.399971 36.8933C0.399971 29.9093 1.55197 23.8253 3.85597 18.6413C6.15997 13.4573 9.47197 9.46131 13.792 6.65331C18.112 3.84531 23.152 2.4413 28.912 2.4413C34.312 2.4413 39.028 3.6653 43.06 6.11331C47.092 8.56131 50.296 12.0893 52.672 16.6973L76 0.821303L76 28.0373L56.992 40.8893ZM28.912 28.1453C26.104 28.1453 23.944 29.0093 22.432 30.7373C20.848 32.4653 20.056 35.0573 20.056 38.5133L20.056 47.8013L37.768 47.8013L37.768 38.5133C37.768 35.0573 37.012 32.4653 35.5 30.7373C33.916 29.0093 31.72 28.1453 28.912 28.1453Z" fill="#C4C4C4" fill-opacity="0.5"/>
</svg>
