<svg width="161" height="1075" viewBox="0 0 161 1075" fill="none" xmlns="http://www.w3.org/2000/svg">
<path d="M182 961.735L182 1074.7L3.49999 1074.7L3.49999 1039.76L150.89 1039.76L150.89 961.735L182 961.735ZM3.49999 940.144L3.49999 905.209L182 905.209L182 940.144L3.49999 940.144ZM3.49999 870.999L3.49999 765.174L34.61 765.174L34.61 836.064L76.175 836.064L76.175 771.549L107.285 771.549L107.285 836.064L150.89 836.064L150.89 763.899L182 763.899L182 870.999L3.49999 870.999ZM45.065 617.666C49.485 617.666 53.905 618.261 58.325 619.451C62.745 620.471 66.825 622.256 70.565 624.806C74.135 627.356 77.365 630.671 80.255 634.751C82.975 638.831 85.015 643.761 86.375 649.541L87.905 649.541C88.755 644.441 90.2 639.596 92.24 635.006C94.28 630.416 97.085 626.421 100.655 623.021C104.225 619.621 108.56 616.986 113.66 615.116C118.76 613.076 124.795 612.056 131.765 612.056C140.945 612.056 148.935 614.011 155.735 617.921C162.365 621.831 167.805 627.101 172.055 633.731C176.305 640.191 179.45 647.586 181.49 655.916C183.53 664.246 184.55 672.831 184.55 681.671C184.55 684.561 184.55 688.301 184.55 692.891C184.55 697.311 184.38 702.156 184.04 707.426C183.87 712.526 183.53 717.796 183.02 723.236C182.51 728.506 181.745 733.351 180.725 737.771L4.77499 737.771C4.265 734.541 3.755 730.886 3.245 726.806C2.73499 722.556 2.30999 718.051 1.97 713.291C1.63 708.531 1.375 703.686 1.20499 698.756C1.03499 693.656 0.949995 688.641 0.949995 683.711C0.949995 675.381 1.63 667.306 2.99 659.486C4.17999 651.496 6.38999 644.441 9.61999 638.321C12.85 632.031 17.355 627.016 23.135 623.276C28.915 619.536 36.225 617.666 45.065 617.666ZM155.735 681.416C155.735 677.166 155.225 673.086 154.205 669.176C153.185 665.096 151.655 661.526 149.615 658.466C147.405 655.406 144.685 652.941 141.455 651.071C138.225 649.201 134.4 648.266 129.98 648.266C124.37 648.266 119.95 649.371 116.72 651.581C113.49 653.791 111.025 656.681 109.325 660.251C107.455 663.821 106.265 667.816 105.755 672.236C105.245 676.656 104.99 681.076 104.99 685.496L104.99 704.111L154.205 704.111C154.545 703.261 154.8 701.901 154.97 700.031C155.14 698.161 155.31 696.206 155.48 694.166C155.48 691.956 155.565 689.746 155.735 687.536C155.735 685.156 155.735 683.116 155.735 681.416ZM78.47 692.891C78.47 690.511 78.385 687.791 78.215 684.731C78.045 681.501 77.79 678.866 77.45 676.826C75.41 670.366 72.35 664.841 68.27 660.251C64.19 655.491 58.835 653.111 52.205 653.111C47.785 653.111 44.13 653.961 41.24 655.661C38.35 657.361 36.055 659.656 34.355 662.546C32.655 665.266 31.465 668.411 30.785 671.981C30.105 675.551 29.765 679.291 29.765 683.201C29.765 687.621 29.85 691.701 30.02 695.441C30.19 699.181 30.445 702.071 30.785 704.111L78.47 704.111L78.47 692.891ZM107.285 486.897L107.285 552.177L182 552.177L182 587.112L3.49999 587.112L3.49999 552.177L76.175 552.177L76.175 486.897L3.5 486.897L3.5 451.962L182 451.962L182 486.897L107.285 486.897ZM3.5 421.013L3.5 315.188L34.61 315.188L34.61 386.078L76.175 386.078L76.175 321.563L107.285 321.563L107.285 386.078L150.89 386.078L150.89 313.913L182 313.913L182 421.013L3.5 421.013ZM5.285 287.786C4.605 283.876 4.01 279.711 3.5 275.291C2.82 270.701 2.31 266.196 1.97 261.776C1.63001 257.186 1.375 252.766 1.205 248.516C1.035 244.266 0.95 240.356 0.95 236.786C0.950001 228.456 1.715 220.296 3.245 212.306C4.775 204.146 7.41 196.921 11.15 190.631C14.89 184.171 20.075 179.071 26.705 175.331C33.165 171.421 41.325 169.466 51.185 169.466C65.805 169.466 77.705 172.866 86.885 179.666C96.065 186.466 102.44 195.561 106.01 206.951L113.915 194.456L182 153.656L182 193.946L112.13 234.491L108.815 252.851L182 252.851L182 287.786L5.285 287.786ZM32.06 234.236C32.06 237.806 32.145 241.376 32.315 244.946C32.485 248.346 32.825 250.981 33.335 252.851L85.1 252.851L85.1 238.061C85.1 228.371 82.89 220.636 78.47 214.856C74.05 209.076 66.74 206.186 56.54 206.186C48.89 206.186 42.94 208.566 38.69 213.326C34.27 218.086 32.06 225.056 32.06 234.236ZM5.28501 134.388C4.60501 130.477 4.01 126.312 3.5 121.892C2.82 117.302 2.31 112.797 1.97 108.378C1.63001 103.787 1.37501 99.3675 1.205 95.1175C1.035 90.8675 0.950002 86.9575 0.950002 83.3875C0.950002 75.0575 1.715 66.8975 3.245 58.9075C4.775 50.7475 7.41001 43.5225 11.15 37.2325C14.89 30.7725 20.075 25.6725 26.705 21.9325C33.165 18.0225 41.325 16.0675 51.185 16.0675C65.805 16.0675 77.705 19.4675 86.885 26.2675C96.065 33.0675 102.44 42.1625 106.01 53.5525L113.915 41.0575L182 0.257496L182 40.5475L112.13 81.0925L108.815 99.4525L182 99.4525L182 134.388L5.28501 134.388ZM32.06 80.8375C32.06 84.4075 32.145 87.9775 32.315 91.5475C32.485 94.9475 32.825 97.5825 33.335 99.4525L85.1 99.4525L85.1 84.6625C85.1 74.9725 82.89 67.2375 78.47 61.4575C74.05 55.6775 66.74 52.7875 56.54 52.7875C48.89 52.7875 42.94 55.1675 38.69 59.9275C34.27 64.6875 32.06 71.6575 32.06 80.8375Z" fill="#D3D0D0" fill-opacity="0.2"/>
</svg>
