<svg width="25" height="25" viewBox="0 0 25 25" fill="none" xmlns="http://www.w3.org/2000/svg">
<path d="M23.6556 0.000978445H1.3669C0.97379 0.000234847 0.613394 0.219843 0.433692 0.56958C0.251512 0.924027 0.283486 1.35085 0.516231 1.67456L8.68189 13.1775C8.68462 13.1814 8.68759 13.1852 8.69032 13.1891C8.98701 13.5897 9.14738 14.0747 9.14837 14.5734V23.9517C9.14664 24.2295 9.2557 24.4962 9.45151 24.6933C9.64732 24.8903 9.91353 25.0009 10.1911 25.0009C10.3324 25.0009 10.472 24.9726 10.6023 24.9186L15.1908 23.1689C15.602 23.0435 15.8749 22.6556 15.8749 22.1883V14.5734C15.8757 14.075 16.0363 13.5897 16.3327 13.1891C16.3355 13.1852 16.3384 13.1814 16.3412 13.1775L24.5066 1.67407C24.7393 1.3506 24.7713 0.924027 24.5891 0.56958C24.4094 0.219843 24.049 0.000234847 23.6556 0.000978445ZM15.3095 12.4373C14.8535 13.0563 14.6068 13.8046 14.6054 14.5734V22.0342L10.4174 23.6309V14.5734C10.416 13.8046 10.1693 13.0563 9.71301 12.4373L1.78555 1.27005H23.2373L15.3095 12.4373Z" fill="white"/>
</svg>
