<svg width="22" height="21" viewBox="0 0 22 21" fill="none" xmlns="http://www.w3.org/2000/svg">
<path d="M11 0C5.20156 0 0.5 4.70156 0.5 10.5C0.5 16.2984 5.20156 21 11 21C16.7984 21 21.5 16.2984 21.5 10.5C21.5 4.70156 16.7984 0 11 0ZM16.0461 7.91484C16.0531 8.025 16.0531 8.13984 16.0531 8.25234C16.0531 11.693 13.4328 15.6562 8.64453 15.6562C7.16797 15.6562 5.79922 15.2273 4.64609 14.4891C4.85703 14.5125 5.05859 14.5219 5.27422 14.5219C6.49297 14.5219 7.61328 14.1094 8.50625 13.4109C7.3625 13.3875 6.40156 12.6375 6.07344 11.6063C6.47422 11.6648 6.83516 11.6648 7.24766 11.5594C6.65873 11.4397 6.12939 11.1199 5.74957 10.6542C5.36974 10.1885 5.16286 9.60564 5.16406 9.00469V8.97187C5.50859 9.16641 5.91406 9.28594 6.33828 9.30234C5.98166 9.06467 5.6892 8.74268 5.48682 8.36491C5.28445 7.98715 5.17841 7.56528 5.17813 7.13672C5.17813 6.65156 5.30469 6.20859 5.53203 5.82422C6.18571 6.62891 7.0014 7.28705 7.92609 7.75586C8.85078 8.22466 9.86377 8.49364 10.8992 8.54531C10.5312 6.77578 11.8531 5.34375 13.4422 5.34375C14.1922 5.34375 14.8672 5.65781 15.343 6.16406C15.9312 6.05391 16.4937 5.83359 16.9953 5.53828C16.8008 6.14062 16.393 6.64922 15.8516 6.97031C16.3766 6.91406 16.8828 6.76875 17.3516 6.56484C16.9977 7.08516 16.5547 7.54688 16.0461 7.91484Z" fill="#D3D3D3"/>
</svg>
