<svg width="24" height="25" viewBox="0 0 24 25" fill="none" xmlns="http://www.w3.org/2000/svg">
<path d="M15.6835 0.5H8.31649C1.5937 0.5 0 2.0937 0 8.81649V16.1835C0 22.9063 1.5937 24.5 8.31649 24.5H15.6835C22.4063 24.5 24 22.9063 24 16.1835V8.81649C24 2.0937 22.3905 0.5 15.6835 0.5ZM19.3749 17.6205H17.6327C16.9727 17.6205 16.7695 17.097 15.5823 15.894C14.551 14.8943 14.0943 14.7616 13.8401 14.7616C13.4808 14.7616 13.3788 14.8628 13.3788 15.3555V16.9297C13.3788 17.352 13.2461 17.6055 12.1286 17.6055C10.2807 17.6055 8.23024 16.488 6.79254 14.4061C4.62436 11.3552 4.03112 9.06998 4.03112 8.5975C4.03112 8.34326 4.13237 8.10551 4.62061 8.10551H6.36655C6.80829 8.10551 6.97628 8.30876 7.14803 8.78124C8.01125 11.2734 9.44896 13.4566 10.0422 13.4566C10.2612 13.4566 10.3624 13.3553 10.3624 12.7966V10.2227C10.2957 9.03548 9.67095 8.93349 9.67095 8.512C9.67095 8.30876 9.83894 8.10551 10.1082 8.10551H12.8538C13.2251 8.10551 13.3616 8.30876 13.3616 8.74599V12.2184C13.3616 12.5934 13.5296 12.7261 13.6308 12.7261C13.8498 12.7261 14.0373 12.5934 14.443 12.1869C15.697 10.7807 16.5955 8.6125 16.5955 8.6125C16.7125 8.35825 16.9157 8.12051 17.3575 8.12051H19.1034C19.6269 8.12051 19.7439 8.38975 19.6269 8.76474C19.4079 9.78021 17.2712 12.7959 17.2712 12.7959C17.0875 13.1004 17.017 13.2331 17.2712 13.5728C17.4587 13.8271 18.0684 14.3543 18.4742 14.8268C19.2204 15.6743 19.7941 16.3853 19.9471 16.8772C20.1189 17.3655 19.8654 17.6197 19.3726 17.6197L19.3749 17.6205Z" fill="#D3D3D3"/>
</svg>
