<svg width="21" height="21" viewBox="0 0 21 21" fill="none" xmlns="http://www.w3.org/2000/svg">
<path d="M16.597 13.0089C16.167 12.5613 15.6485 12.3219 15.0989 12.3219C14.5537 12.3219 14.0307 12.5568 13.5831 13.0045L12.1825 14.4006C12.0673 14.3386 11.952 14.2809 11.8412 14.2233C11.6817 14.1436 11.531 14.0682 11.4024 13.9884C10.0905 13.1552 8.89825 12.0693 7.75474 10.6643C7.20072 9.96399 6.82842 9.37451 6.55805 8.77617C6.92149 8.44375 7.25834 8.09804 7.58632 7.76562C7.71042 7.64152 7.83452 7.51299 7.95862 7.38889C8.88939 6.45813 8.88939 5.25257 7.95862 4.32181L6.74864 3.11182C6.61124 2.97442 6.46941 2.83259 6.33644 2.69076C6.07051 2.41597 5.79128 2.13231 5.50319 1.86638C5.07327 1.44089 4.55913 1.21484 4.0184 1.21484C3.47768 1.21484 2.95468 1.44089 2.51146 1.86638C2.50703 1.87081 2.50703 1.87081 2.50259 1.87524L0.995649 3.39548C0.428328 3.9628 0.104778 4.65423 0.0338628 5.45645C-0.0725098 6.75065 0.308659 7.95621 0.601184 8.74514C1.3192 10.682 2.39179 12.477 3.99181 14.4006C5.93311 16.7187 8.26888 18.5492 10.9371 19.8389C11.9565 20.322 13.3171 20.8938 14.8374 20.9913C14.9305 20.9957 15.028 21.0002 15.1166 21.0002C16.1405 21.0002 17.0003 20.6323 17.674 19.901C17.6784 19.8921 17.6873 19.8877 17.6917 19.8788C17.9222 19.5996 18.1881 19.3469 18.4674 19.0766C18.6579 18.8949 18.853 18.7043 19.0435 18.5048C19.4823 18.0483 19.7128 17.5165 19.7128 16.9713C19.7128 16.4217 19.4779 15.8943 19.0302 15.451L16.597 13.0089ZM18.1837 17.676C18.1793 17.676 18.1793 17.6804 18.1837 17.676C18.0108 17.8622 17.8336 18.0306 17.643 18.2167C17.3549 18.4915 17.0624 18.7796 16.7876 19.1032C16.3399 19.5819 15.8125 19.8079 15.121 19.8079C15.0546 19.8079 14.9837 19.8079 14.9172 19.8035C13.6008 19.7192 12.3775 19.2051 11.4601 18.7663C8.95144 17.5519 6.74864 15.8278 4.91814 13.6427C3.40676 11.8211 2.39622 10.1368 1.72696 8.32851C1.31477 7.2249 1.16407 6.36505 1.23056 5.55396C1.27488 5.03539 1.47433 4.60547 1.8422 4.2376L3.35358 2.72622C3.57075 2.52234 3.80123 2.41154 4.02727 2.41154C4.3065 2.41154 4.53254 2.57996 4.67437 2.72179C4.6788 2.72622 4.68323 2.73065 4.68767 2.73509C4.95803 2.98772 5.2151 3.24922 5.48546 3.52845C5.62286 3.67028 5.76469 3.81211 5.90652 3.95837L7.11651 5.16836C7.58632 5.63817 7.58632 6.07253 7.11651 6.54234C6.98797 6.67087 6.86387 6.79941 6.73534 6.92351C6.36304 7.30468 6.00846 7.65925 5.62286 8.00496C5.61399 8.01383 5.60513 8.01826 5.6007 8.02712C5.21953 8.40829 5.29044 8.7806 5.37022 9.03323C5.37466 9.04653 5.37909 9.05982 5.38352 9.07312C5.69821 9.83546 6.14143 10.5535 6.81512 11.4089L6.81955 11.4133C8.04284 12.9203 9.33261 14.0948 10.7553 14.9945C10.9371 15.1098 11.1232 15.2028 11.3005 15.2915C11.4601 15.3713 11.6108 15.4466 11.7393 15.5264C11.757 15.5353 11.7747 15.5486 11.7925 15.5574C11.9432 15.6328 12.085 15.6682 12.2313 15.6682C12.5991 15.6682 12.8296 15.4378 12.905 15.3624L14.4208 13.8466C14.5715 13.6959 14.8108 13.5142 15.09 13.5142C15.3648 13.5142 15.5909 13.687 15.7283 13.8377C15.7327 13.8422 15.7327 13.8422 15.7371 13.8466L18.1793 16.2887C18.6358 16.7408 18.6358 17.2062 18.1837 17.676Z" fill="#FCD127"/>
<path d="M11.349 4.99557C12.5102 5.19058 13.5651 5.74018 14.4072 6.58229C15.2493 7.42441 15.7945 8.47927 15.9939 9.64051C16.0427 9.93303 16.2953 10.1369 16.5834 10.1369C16.6188 10.1369 16.6499 10.1325 16.6853 10.128C17.0133 10.0749 17.2305 9.76461 17.1773 9.43663C16.938 8.03162 16.2731 6.75072 15.2582 5.73574C14.2432 4.72077 12.9623 4.05594 11.5573 3.8166C11.2293 3.76342 10.9235 3.9806 10.8659 4.30415C10.8082 4.6277 11.021 4.94238 11.349 4.99557Z" fill="#FCD127"/>
<path d="M20.9758 9.26354C20.5813 6.94994 19.491 4.84465 17.8156 3.16928C16.1403 1.49391 14.035 0.403587 11.7214 0.00912211C11.3978 -0.0484964 11.092 0.173113 11.0344 0.496664C10.9812 0.824646 11.1984 1.13047 11.5263 1.18809C13.5917 1.53823 15.4754 2.51774 16.9735 4.01139C18.4716 5.50948 19.4467 7.39316 19.7968 9.45856C19.8456 9.75109 20.0982 9.95497 20.3863 9.95497C20.4218 9.95497 20.4528 9.95053 20.4882 9.9461C20.8118 9.89735 21.0334 9.58709 20.9758 9.26354Z" fill="#FCD127"/>
</svg>
