<svg width="135" height="96" viewBox="0 0 135 96" fill="none" xmlns="http://www.w3.org/2000/svg">
<path d="M17.568 79.408L17.0518 80.2645L17.0605 80.2696L17.568 79.408ZM6.624 67.312L5.72741 67.7549L5.72957 67.7592L6.624 67.312ZM6.624 29.584L7.51844 30.0312L7.52058 30.0269L6.624 29.584ZM17.568 17.488L18.0756 18.3497L18.0842 18.3445L17.568 17.488ZM49.632 17.488L49.1158 18.3445L49.1245 18.3496L49.632 17.488ZM60.576 29.584L59.6794 30.0269L59.6816 30.0312L60.576 29.584ZM60.576 67.312L61.4704 67.7592L61.4726 67.7549L60.576 67.312ZM49.632 79.408L50.1396 80.2697L50.1482 80.2645L49.632 79.408ZM33.6 82.536C27.7424 82.536 22.5773 81.1981 18.0755 78.5464L17.0605 80.2696C21.9027 83.1219 27.4256 84.536 33.6 84.536V82.536ZM18.0842 78.5515C13.5869 75.8408 10.0644 71.9566 7.51843 66.8648L5.72957 67.7592C8.43164 73.1633 12.2051 77.3432 17.0518 80.2645L18.0842 78.5515ZM7.52058 66.8691C4.97853 61.723 3.688 55.5773 3.688 48.4H1.688C1.688 55.8147 3.02147 62.277 5.72742 67.7549L7.52058 66.8691ZM3.688 48.4C3.688 41.2223 4.97869 35.1107 7.51843 30.0312L5.72957 29.1368C3.02131 34.5533 1.688 40.9857 1.688 48.4H3.688ZM7.52058 30.0269C10.0667 24.8725 13.5867 20.9938 18.0755 18.3496L17.0605 16.6264C12.2053 19.4862 8.42928 23.6715 5.72742 29.1411L7.52058 30.0269ZM18.0842 18.3445C22.5847 15.6318 27.7467 14.264 33.6 14.264V12.264C27.4214 12.264 21.8953 13.7122 17.0518 16.6315L18.0842 18.3445ZM33.6 14.264C39.4534 14.264 44.6153 15.6318 49.1158 18.3445L50.1482 16.6315C45.3047 13.7122 39.7787 12.264 33.6 12.264V14.264ZM49.1245 18.3496C53.6133 20.9938 57.1333 24.8725 59.6794 30.0269L61.4726 29.1411C58.7707 23.6715 54.9947 19.4862 50.1395 16.6264L49.1245 18.3496ZM59.6816 30.0312C62.2213 35.1107 63.512 41.2223 63.512 48.4H65.512C65.512 40.9857 64.1787 34.5533 61.4704 29.1368L59.6816 30.0312ZM63.512 48.4C63.512 55.5773 62.2215 61.723 59.6794 66.8691L61.4726 67.7549C64.1785 62.277 65.512 55.8147 65.512 48.4H63.512ZM59.6816 66.8648C57.1356 71.9566 53.6132 75.8408 49.1158 78.5515L50.1482 80.2645C54.9949 77.3432 58.7684 73.1633 61.4704 67.7592L59.6816 66.8648ZM49.1245 78.5464C44.6227 81.1981 39.4576 82.536 33.6 82.536V84.536C39.7744 84.536 45.2973 83.1219 50.1395 80.2696L49.1245 78.5464ZM33.6 66.392C35.1435 66.392 36.5368 65.9868 37.7402 65.1515C38.9353 64.3219 39.886 63.1083 40.6214 61.5769C42.0793 58.5411 42.76 54.1121 42.76 48.4H40.76C40.76 54.0159 40.0807 58.0829 38.8186 60.7111C38.194 62.0117 37.4447 62.9221 36.5998 63.5085C35.7632 64.0892 34.7765 64.392 33.6 64.392V66.392ZM42.76 48.4C42.76 42.6879 42.0793 38.2589 40.6214 35.2231C39.886 33.6917 38.9353 32.4781 37.7402 31.6485C36.5368 30.8132 35.1435 30.408 33.6 30.408V32.408C34.7765 32.408 35.7632 32.7108 36.5998 33.2915C37.4447 33.8779 38.194 34.7883 38.8186 36.0889C40.0807 38.7171 40.76 42.7841 40.76 48.4H42.76ZM33.6 30.408C32.0565 30.408 30.6632 30.8132 29.4598 31.6485C28.2647 32.4781 27.314 33.6917 26.5786 35.2231C25.1207 38.2589 24.44 42.6879 24.44 48.4H26.44C26.44 42.7841 27.1193 38.7171 28.3814 36.0889C29.006 34.7883 29.7553 33.8779 30.6002 33.2915C31.4368 32.7108 32.4235 32.408 33.6 32.408V30.408ZM24.44 48.4C24.44 54.1121 25.1207 58.5411 26.5786 61.5769C27.314 63.1083 28.2647 64.3219 29.4598 65.1515C30.6632 65.9868 32.0565 66.392 33.6 66.392V64.392C32.4235 64.392 31.4368 64.0892 30.6002 63.5085C29.7553 62.9221 29.006 62.0117 28.3814 60.7111C27.1193 58.0829 26.44 54.0159 26.44 48.4H24.44ZM113.683 41.2L112.997 40.4721L111.625 41.7647L113.465 42.1759L113.683 41.2ZM126.163 48.112L125.4 48.7593L125.408 48.7675L126.163 48.112ZM127.219 71.824L126.375 71.2871L127.219 71.824ZM116.755 80.368L117.162 81.2814L117.172 81.2767L116.755 80.368ZM82.9628 81.712L82.7258 82.6836L82.737 82.6862L82.9628 81.712ZM70.0027 76.528L69.0942 76.1103L68.731 76.9002L69.4628 77.3697L70.0027 76.528ZM77.6827 59.824L78.1999 58.9681L77.2418 58.3892L76.7742 59.4063L77.6827 59.824ZM105.907 57.04L105.373 57.8855L105.382 57.8916L105.392 57.8975L105.907 57.04ZM89.3948 55.888H88.3948V56.888H89.3948V55.888ZM89.3948 41.968L88.7076 41.2415L88.3948 41.5374V41.968H89.3948ZM100.051 31.888L100.738 32.6145L102.563 30.888H100.051V31.888ZM73.6507 31.888H72.6507V32.888H73.6507V31.888ZM73.6507 14.8V13.8H72.6507V14.8H73.6507ZM126.931 14.8H127.931V13.8H126.931V14.8ZM126.931 28.72L127.616 29.4479L127.931 29.1518V28.72H126.931ZM113.465 42.1759C118.747 43.3566 122.694 45.5711 125.4 48.7592L126.925 47.4648C123.872 43.8689 119.499 41.4754 113.901 40.2241L113.465 42.1759ZM125.408 48.7675C128.18 51.9619 129.579 55.8512 129.579 60.496H131.579C131.579 55.4127 130.033 51.0461 126.918 47.4565L125.408 48.7675ZM129.579 60.496C129.579 64.331 128.517 67.9217 126.375 71.2871L128.062 72.3609C130.401 68.6863 131.579 64.725 131.579 60.496H129.579ZM126.375 71.2871C124.261 74.6086 120.942 77.3437 116.337 79.4593L117.172 81.2767C122.04 79.0403 125.696 76.0794 128.062 72.3609L126.375 71.2871ZM116.347 79.4547C111.777 81.493 106.038 82.536 99.0908 82.536V84.536C106.224 84.536 112.261 83.467 117.162 81.2813L116.347 79.4547ZM99.0908 82.536C93.6611 82.536 88.3609 81.9363 83.1885 80.7378L82.737 82.6862C88.0606 83.9197 93.5124 84.536 99.0908 84.536V82.536ZM83.1997 80.7405C78.025 79.4783 73.8159 77.7861 70.5427 75.6863L69.4628 77.3697C72.9736 79.6219 77.4045 81.3857 82.7258 82.6835L83.1997 80.7405ZM70.9113 76.9457L78.5913 60.2417L76.7742 59.4063L69.0942 76.1103L70.9113 76.9457ZM77.1656 60.6799C80.3215 62.5866 83.7989 64.0614 87.5928 65.108L88.1247 63.18C84.4946 62.1786 81.188 60.7734 78.1999 58.9681L77.1656 60.6799ZM87.5928 65.108C91.38 66.1527 95.0217 66.68 98.5147 66.68V64.68C95.2238 64.68 91.7615 64.1833 88.1247 63.18L87.5928 65.108ZM98.5147 66.68C101.679 66.68 104.211 66.2453 105.985 65.2577C106.887 64.7555 107.61 64.1008 108.103 63.2777C108.596 62.4532 108.827 61.5144 108.827 60.496H106.827C106.827 61.2056 106.669 61.7788 106.387 62.2503C106.104 62.7232 105.662 63.1485 105.012 63.5103C103.682 64.2507 101.559 64.68 98.5147 64.68V66.68ZM108.827 60.496C108.827 58.6212 108.013 57.1376 106.421 56.1825L105.392 57.8975C106.36 58.4784 106.827 59.2988 106.827 60.496H108.827ZM106.441 56.1945C104.973 55.2676 102.713 54.888 99.8587 54.888V56.888C102.636 56.888 104.408 57.2764 105.373 57.8855L106.441 56.1945ZM99.8587 54.888H89.3948V56.888H99.8587V54.888ZM90.3948 55.888V41.968H88.3948V55.888H90.3948ZM90.0819 42.6945L100.738 32.6145L99.3635 31.1615L88.7076 41.2415L90.0819 42.6945ZM100.051 30.888H73.6507V32.888H100.051V30.888ZM74.6507 31.888V14.8H72.6507V31.888H74.6507ZM73.6507 15.8H126.931V13.8H73.6507V15.8ZM125.931 14.8V28.72H127.931V14.8H125.931ZM126.245 27.9921L112.997 40.4721L114.368 41.9279L127.616 29.4479L126.245 27.9921Z" fill="#454545"/>
<path d="M21.376 87.512C17.8347 87.512 14.6773 86.616 11.904 84.824C9.17333 82.9893 7.01867 80.344 5.44 76.888C3.86133 73.432 3.072 69.336 3.072 64.6C3.072 59.864 3.86133 55.768 5.44 52.312C7.01867 48.856 9.17333 46.232 11.904 44.44C14.6773 42.6053 17.8347 41.688 21.376 41.688C24.8747 41.688 27.9893 42.6053 30.72 44.44C33.4933 46.232 35.6693 48.856 37.248 52.312C38.8267 55.768 39.616 59.864 39.616 64.6C39.616 69.336 38.8267 73.432 37.248 76.888C35.6693 80.344 33.4933 82.9893 30.72 84.824C27.9893 86.616 24.8747 87.512 21.376 87.512ZM21.376 81.816C24.96 81.816 27.8187 80.344 29.952 77.4C32.128 74.456 33.216 70.1893 33.216 64.6C33.216 59.0107 32.128 54.744 29.952 51.8C27.8187 48.856 24.96 47.384 21.376 47.384C17.7493 47.384 14.848 48.856 12.672 51.8C10.5387 54.744 9.472 59.0107 9.472 64.6C9.472 70.1893 10.5387 74.456 12.672 77.4C14.848 80.344 17.7493 81.816 21.376 81.816ZM62.2865 61.016C66.6812 61.4427 70.0305 62.808 72.3345 65.112C74.6385 67.3733 75.7905 70.2747 75.7905 73.816C75.7905 76.376 75.1505 78.7013 73.8705 80.792C72.5905 82.84 70.6705 84.4827 68.1105 85.72C65.5932 86.9147 62.4998 87.512 58.8305 87.512C55.6305 87.512 52.5585 87.0427 49.6145 86.104C46.6705 85.1227 44.2598 83.7787 42.3825 82.072L45.3265 77.016C46.8625 78.4667 48.8252 79.64 51.2145 80.536C53.6038 81.3893 56.1425 81.816 58.8305 81.816C62.1585 81.816 64.7398 81.112 66.5745 79.704C68.4518 78.296 69.3905 76.3547 69.3905 73.88C69.3905 71.4053 68.4732 69.4853 66.6385 68.12C64.8038 66.7547 62.0305 66.072 58.3185 66.072H54.7345V61.592L65.9985 47.768H44.4305V42.2H73.9985V46.552L62.2865 61.016Z" fill="white"/>
</svg>
