<svg width="651" height="81" viewBox="0 0 651 81" fill="none" xmlns="http://www.w3.org/2000/svg">
<path d="M59.75 64.7L59.75 79L0.130001 79L0.130001 1.99999L58.32 1.99999L58.32 16.3L17.84 16.3L17.84 33.02L53.59 33.02L53.59 46.88L17.84 46.88L17.84 64.7L59.75 64.7ZM108.139 80.32C97.1388 80.32 88.5588 77.2767 82.3988 71.19C76.3122 65.1033 73.2688 56.4133 73.2688 45.12L73.2688 1.99999H91.0888L91.0888 44.46C91.0888 58.2467 96.8088 65.14 108.249 65.14C113.822 65.14 118.075 63.49 121.009 60.19C123.942 56.8167 125.409 51.5733 125.409 44.46L125.409 1.99999H143.009L143.009 45.12C143.009 56.4133 139.929 65.1033 133.769 71.19C127.682 77.2767 119.139 80.32 108.139 80.32ZM209.678 79L194.828 57.55H193.948H178.438L178.438 79H160.618L160.618 1.99999L193.948 1.99999C200.768 1.99999 206.672 3.13666 211.658 5.41C216.718 7.68333 220.605 10.91 223.318 15.09C226.032 19.27 227.388 24.22 227.388 29.94C227.388 35.66 225.995 40.61 223.208 44.79C220.495 48.8967 216.608 52.05 211.548 54.25L228.818 79L209.678 79ZM209.348 29.94C209.348 25.6133 207.955 22.3133 205.168 20.04C202.382 17.6933 198.312 16.52 192.958 16.52L178.438 16.52L178.438 43.36H192.958C198.312 43.36 202.382 42.1867 205.168 39.84C207.955 37.4933 209.348 34.1933 209.348 29.94ZM278.797 80.32C270.804 80.32 263.58 78.5967 257.127 75.15C250.747 71.7033 245.724 66.9733 242.057 60.96C238.464 54.8733 236.667 48.0533 236.667 40.5C236.667 32.9467 238.464 26.1633 242.057 20.15C245.724 14.0633 250.747 9.29666 257.127 5.85C263.58 2.40333 270.804 0.679999 278.797 0.679999C286.79 0.679999 293.977 2.40333 300.357 5.85C306.737 9.29666 311.76 14.0633 315.427 20.15C319.094 26.1633 320.927 32.9467 320.927 40.5C320.927 48.0533 319.094 54.8733 315.427 60.96C311.76 66.9733 306.737 71.7033 300.357 75.15C293.977 78.5967 286.79 80.32 278.797 80.32ZM278.797 65.14C283.344 65.14 287.45 64.1133 291.117 62.06C294.784 59.9333 297.644 57 299.697 53.26C301.824 49.52 302.887 45.2667 302.887 40.5C302.887 35.7333 301.824 31.48 299.697 27.74C297.644 24 294.784 21.1033 291.117 19.05C287.45 16.9233 283.344 15.86 278.797 15.86C274.25 15.86 270.144 16.9233 266.477 19.05C262.81 21.1033 259.914 24 257.787 27.74C255.734 31.48 254.707 35.7333 254.707 40.5C254.707 45.2667 255.734 49.52 257.787 53.26C259.914 57 262.81 59.9333 266.477 62.06C270.144 64.1133 274.25 65.14 278.797 65.14ZM371.169 80.32C363.323 80.32 356.209 78.6333 349.829 75.26C343.523 71.8133 338.536 67.0833 334.869 61.07C331.276 54.9833 329.479 48.1267 329.479 40.5C329.479 32.8733 331.276 26.0533 334.869 20.04C338.536 13.9533 343.523 9.22333 349.829 5.85C356.209 2.40333 363.359 0.679999 371.279 0.679999C377.953 0.679999 383.966 1.85333 389.319 4.2C394.746 6.54667 399.293 9.92 402.959 14.32L391.519 24.88C386.313 18.8667 379.859 15.86 372.159 15.86C367.393 15.86 363.139 16.9233 359.399 19.05C355.659 21.1033 352.726 24 350.599 27.74C348.546 31.48 347.519 35.7333 347.519 40.5C347.519 45.2667 348.546 49.52 350.599 53.26C352.726 57 355.659 59.9333 359.399 62.06C363.139 64.1133 367.393 65.14 372.159 65.14C379.859 65.14 386.313 62.0967 391.519 56.01L402.959 66.57C399.293 71.0433 394.746 74.4533 389.319 76.8C383.893 79.1467 377.843 80.32 371.169 80.32ZM464.053 79L449.203 57.55H448.323H432.813L432.813 79H414.993L414.993 1.99999H448.323C455.143 1.99999 461.047 3.13666 466.033 5.41C471.093 7.68333 474.98 10.91 477.693 15.09C480.407 19.27 481.763 24.22 481.763 29.94C481.763 35.66 480.37 40.61 477.583 44.79C474.87 48.8967 470.983 52.05 465.923 54.25L483.193 79L464.053 79ZM463.723 29.94C463.723 25.6133 462.33 22.3133 459.543 20.04C456.757 17.6933 452.687 16.52 447.333 16.52H432.813L432.813 43.36H447.333C452.687 43.36 456.757 42.1867 459.543 39.84C462.33 37.4933 463.723 34.1933 463.723 29.94ZM546.592 62.5H510.842L504.022 79H485.762L520.082 1.99999H537.682L572.112 79L553.412 79L546.592 62.5ZM540.982 48.97L528.772 19.49L516.562 48.97H540.982ZM650.721 1.99999L650.721 79H636.091L597.701 32.25L597.701 79H580.101L580.101 1.99999L594.841 1.99999L633.121 48.75L633.121 1.99999H650.721Z" fill="#D3D0D0" fill-opacity="0.2"/>
</svg>
