<svg width="628" height="114" viewBox="0 0 628 114" fill="none" xmlns="http://www.w3.org/2000/svg">
<path d="M52.11 81.86C52.11 78.5533 50.87 75.8667 48.39 73.8C46.0134 71.7333 42.965 69.8733 39.245 68.22C35.6284 66.4633 31.65 64.7067 27.31 62.95C23.0734 61.09 19.095 58.8683 15.375 56.285C11.7584 53.5983 8.71002 50.2917 6.23002 46.365C3.85335 42.4383 2.66502 37.4267 2.66502 31.33C2.66501 26.06 3.54335 21.5133 5.30001 17.69C7.05668 13.7633 9.53668 10.5083 12.74 7.92499C16.0467 5.34166 19.9217 3.42999 24.365 2.18999C28.8083 0.949988 33.7683 0.329986 39.245 0.329985C45.5483 0.329984 51.49 0.898318 57.07 2.03499C62.65 3.06832 67.2483 4.61832 70.865 6.68498L64.2 24.51C61.9267 23.0633 58.5167 21.7717 53.97 20.635C49.4233 19.395 44.515 18.775 39.245 18.775C34.285 18.775 30.4617 19.7567 27.775 21.72C25.1917 23.6833 23.9 26.3183 23.9 29.625C23.9 32.725 25.0884 35.3083 27.465 37.375C29.945 39.4417 32.9934 41.3533 36.61 43.11C40.33 44.8667 44.3084 46.675 48.545 48.535C52.885 50.395 56.8634 52.6683 60.48 55.355C64.2 57.9383 67.2484 61.1933 69.625 65.12C72.105 68.9433 73.345 73.7483 73.345 79.535C73.345 85.3217 72.3634 90.3333 70.4 94.57C68.54 98.7033 65.8534 102.165 62.34 104.955C58.93 107.745 54.745 109.812 49.785 111.155C44.9284 112.498 39.555 113.17 33.665 113.17C25.915 113.17 19.095 112.447 13.205 111C7.31503 109.553 2.97503 108.107 0.185029 106.66L7.00503 88.525C8.14169 89.145 9.58836 89.8167 11.345 90.54C13.205 91.2633 15.2717 91.935 17.545 92.555C19.8184 93.175 22.195 93.6917 24.675 94.105C27.2584 94.5183 29.8934 94.725 32.58 94.725C38.8834 94.725 43.6884 93.6917 46.995 91.625C50.405 89.455 52.11 86.2 52.11 81.86ZM87.4924 2.49998L151.817 2.49997L151.817 21.41L108.727 21.41L108.727 46.675L147.942 46.675L147.942 65.585L108.727 65.585L108.727 92.09L152.592 92.09L152.592 111L87.4924 111L87.4924 2.49998ZM168.474 3.58497C170.851 3.17163 173.382 2.80996 176.069 2.49996C178.859 2.08663 181.597 1.77663 184.284 1.56996C187.074 1.3633 189.761 1.2083 192.344 1.10496C194.927 1.00163 197.304 0.949959 199.474 0.949959C204.537 0.949958 209.497 1.41496 214.354 2.34496C219.314 3.27496 223.706 4.87662 227.529 7.14996C231.456 9.42329 234.556 12.575 236.829 16.605C239.206 20.5316 240.394 25.4916 240.394 31.485C240.394 40.3716 238.327 47.605 234.194 53.185C230.061 58.765 224.532 62.64 217.609 64.81L225.204 69.615L250.004 111L225.514 111L200.869 68.53L189.709 66.515L189.709 111L168.474 111L168.474 3.58497ZM201.024 19.86C198.854 19.86 196.684 19.9116 194.514 20.015C192.447 20.1183 190.846 20.325 189.709 20.635L189.709 52.1L198.699 52.1C204.589 52.1 209.291 50.7566 212.804 48.07C216.317 45.3833 218.074 40.94 218.074 34.74C218.074 30.09 216.627 26.4733 213.734 23.89C210.841 21.2033 206.604 19.86 201.024 19.86ZM289.949 66.2049L292.739 84.6499L293.514 84.6499L296.614 66.0499L317.384 2.49994L339.704 2.49993L299.404 111.775L284.214 111.775L243.604 2.49995L268.249 2.49995L289.949 66.2049ZM349.711 2.49993L370.946 2.49993L370.946 111L349.711 111L349.711 2.49993ZM465.21 106.505C461.904 108.882 457.667 110.587 452.5 111.62C447.437 112.653 442.219 113.17 436.845 113.17C430.335 113.17 424.135 112.188 418.245 110.225C412.459 108.158 407.344 104.903 402.9 100.46C398.457 95.9133 394.892 90.0749 392.205 82.9449C389.622 75.7116 388.33 66.9799 388.33 56.7499C388.33 46.1066 389.777 37.2199 392.67 30.0899C395.667 22.8566 399.49 17.0699 404.14 12.7299C408.894 8.28659 414.164 5.13492 419.95 3.27492C425.737 1.31158 431.524 0.329917 437.31 0.329916C443.51 0.329915 448.729 0.743248 452.965 1.56992C457.305 2.39658 460.87 3.37825 463.66 4.51491L459.475 22.4949C457.099 21.3582 454.257 20.5316 450.95 20.0149C447.747 19.4983 443.82 19.2399 439.17 19.2399C430.594 19.2399 423.67 22.2883 418.4 28.3849C413.234 34.4816 410.65 43.9366 410.65 56.7499C410.65 62.3299 411.27 67.4449 412.51 72.0949C413.75 76.6416 415.61 80.5683 418.09 83.8749C420.674 87.0783 423.825 89.6099 427.545 91.4699C431.369 93.2266 435.76 94.1049 440.72 94.1049C445.37 94.1049 449.297 93.6399 452.5 92.7099C455.704 91.7799 458.494 90.5916 460.87 89.1449L465.21 106.505ZM478.322 2.49991L542.647 2.4999L542.647 21.4099L499.557 21.4099L499.557 46.6749L538.772 46.6749L538.772 65.5849L499.557 65.5849L499.557 92.0899L543.422 92.0899L543.422 111L478.322 111L478.322 2.49991ZM606.114 81.8599C606.114 78.5532 604.874 75.8666 602.394 73.7999C600.017 71.7332 596.969 69.8732 593.249 68.2199C589.632 66.4632 585.654 64.7066 581.314 62.9499C577.077 61.0899 573.099 58.8682 569.379 56.2849C565.762 53.5982 562.714 50.2916 560.234 46.3649C557.857 42.4382 556.669 37.4266 556.669 31.3299C556.669 26.0599 557.547 21.5132 559.304 17.6899C561.061 13.7632 563.541 10.5082 566.744 7.9249C570.051 5.34156 573.926 3.42989 578.369 2.18989C582.812 0.949891 587.772 0.329889 593.249 0.329888C599.552 0.329887 605.494 0.898222 611.074 2.03489C616.654 3.06822 621.252 4.61822 624.869 6.68488L618.204 24.5099C615.931 23.0632 612.521 21.7716 607.974 20.6349C603.427 19.3949 598.519 18.7749 593.249 18.7749C588.289 18.7749 584.466 19.7566 581.779 21.7199C579.196 23.6832 577.904 26.3182 577.904 29.6249C577.904 32.7249 579.092 35.3082 581.469 37.3749C583.949 39.4416 586.997 41.3532 590.614 43.1099C594.334 44.8666 598.312 46.6749 602.549 48.5349C606.889 50.3949 610.867 52.6682 614.484 55.3549C618.204 57.9382 621.252 61.1932 623.629 65.1199C626.109 68.9432 627.349 73.7482 627.349 79.5349C627.349 85.3216 626.367 90.3332 624.404 94.5699C622.544 98.7032 619.857 102.165 616.344 104.955C612.934 107.745 608.749 109.812 603.789 111.155C598.932 112.498 593.559 113.17 587.669 113.17C579.919 113.17 573.099 112.447 567.209 111C561.319 109.553 556.979 108.107 554.189 106.66L561.009 88.5249C562.146 89.1449 563.592 89.8166 565.349 90.5399C567.209 91.2632 569.276 91.9349 571.549 92.5549C573.822 93.1749 576.199 93.6916 578.679 94.1049C581.262 94.5182 583.897 94.7249 586.584 94.7249C592.887 94.7249 597.692 93.6916 600.999 91.6249C604.409 89.4549 606.114 86.1999 606.114 81.8599Z" fill="#D3D0D0" fill-opacity="0.2"/>
</svg>
