<svg width="654" height="113" viewBox="0 0 654 113" fill="none" xmlns="http://www.w3.org/2000/svg">
<path d="M68.965 111H0.300001L0.3 2.49999L21.535 2.49999L21.535 92.09H68.965L68.965 111ZM82.0891 2.49999L103.324 2.49999L103.324 111H82.0891L82.0891 2.49999ZM124.118 2.49999L188.443 2.49999L188.443 21.41H145.353L145.353 46.675H184.568L184.568 65.585H145.353L145.353 92.09H189.218L189.218 111H124.118L124.118 2.49999ZM278.105 27.765C278.105 30.4517 277.743 33.1383 277.02 35.825C276.4 38.5117 275.315 40.9917 273.765 43.265C272.215 45.435 270.2 47.3983 267.72 49.155C265.24 50.8083 262.243 52.0483 258.73 52.875L258.73 53.805C261.83 54.3217 264.775 55.2 267.565 56.44C270.355 57.68 272.783 59.385 274.85 61.555C276.916 63.725 278.518 66.36 279.655 69.46C280.895 72.56 281.515 76.2283 281.515 80.465C281.515 86.045 280.326 90.9017 277.95 95.035C275.573 99.065 272.37 102.372 268.34 104.955C264.413 107.538 259.918 109.45 254.855 110.69C249.791 111.93 244.573 112.55 239.2 112.55C237.443 112.55 235.17 112.55 232.38 112.55C229.693 112.55 226.748 112.447 223.545 112.24C220.445 112.137 217.241 111.93 213.935 111.62C210.731 111.31 207.786 110.845 205.1 110.225L205.1 3.27499C207.063 2.965 209.285 2.655 211.765 2.34499C214.348 2.03499 217.086 1.77666 219.98 1.57C222.873 1.36333 225.818 1.20833 228.815 1.10499C231.915 1.00166 234.963 0.949994 237.96 0.949994C243.023 0.949994 247.931 1.36333 252.685 2.19C257.541 2.91333 261.83 4.25666 265.55 6.21999C269.373 8.18333 272.421 10.9217 274.695 14.435C276.968 17.9483 278.105 22.3917 278.105 27.765ZM239.355 95.035C241.938 95.035 244.418 94.725 246.795 94.105C249.275 93.485 251.445 92.555 253.305 91.315C255.165 89.9717 256.663 88.3183 257.8 86.355C258.936 84.3917 259.505 82.0667 259.505 79.38C259.505 75.97 258.833 73.2833 257.49 71.32C256.146 69.3567 254.39 67.8583 252.22 66.825C250.05 65.6883 247.621 64.965 244.935 64.655C242.248 64.345 239.561 64.19 236.875 64.19H225.56L225.56 94.105C226.076 94.3117 226.903 94.4667 228.04 94.57C229.176 94.6733 230.365 94.7767 231.605 94.88C232.948 94.88 234.291 94.9317 235.635 95.035C237.081 95.035 238.321 95.035 239.355 95.035ZM232.38 48.07C233.826 48.07 235.48 48.0183 237.34 47.915C239.303 47.8117 240.905 47.6567 242.145 47.45C246.071 46.21 249.43 44.35 252.22 41.87C255.113 39.39 256.56 36.135 256.56 32.105C256.56 29.4183 256.043 27.1967 255.01 25.44C253.976 23.6833 252.581 22.2883 250.825 21.255C249.171 20.2217 247.26 19.4983 245.09 19.085C242.92 18.6717 240.646 18.465 238.27 18.465C235.583 18.465 233.103 18.5167 230.83 18.62C228.556 18.7233 226.8 18.8783 225.56 19.085L225.56 48.07H232.38ZM357.592 65.585H317.912L317.912 111H296.677L296.677 2.49999H317.912L317.912 46.675H357.592L357.592 2.49999L378.827 2.49999L378.827 111H357.592L357.592 65.585ZM397.639 2.49999L461.964 2.49999L461.964 21.41H418.874L418.874 46.675H458.089L458.089 65.585H418.874L418.874 92.09L462.739 92.09L462.739 111L397.639 111L397.639 2.49999ZM478.62 3.585C480.997 3.17166 483.529 2.80999 486.215 2.49999C489.005 2.08666 491.744 1.77666 494.43 1.57C497.22 1.36333 499.907 1.20833 502.49 1.10499C505.074 1.00166 507.45 0.949994 509.62 0.949994C514.684 0.949994 519.644 1.41499 524.5 2.34499C529.46 3.27499 533.852 4.87666 537.675 7.15C541.602 9.42333 544.702 12.575 546.975 16.605C549.352 20.5317 550.54 25.4917 550.54 31.485C550.54 40.3717 548.474 47.605 544.34 53.185C540.207 58.765 534.679 62.64 527.755 64.81L535.35 69.615L560.15 111H535.66L511.015 68.53L499.855 66.515L499.855 111H478.62L478.62 3.585ZM511.17 19.86C509 19.86 506.83 19.9117 504.66 20.015C502.594 20.1183 500.992 20.325 499.855 20.635L499.855 52.1H508.845C514.735 52.1 519.437 50.7567 522.95 48.07C526.464 45.3833 528.22 40.94 528.22 34.74C528.22 30.09 526.774 26.4733 523.88 23.89C520.987 21.2033 516.75 19.86 511.17 19.86ZM571.863 3.585C574.239 3.17166 576.771 2.80999 579.458 2.49999C582.248 2.08666 584.986 1.77666 587.673 1.57C590.463 1.36333 593.149 1.20833 595.733 1.10499C598.316 1.00166 600.693 0.949994 602.863 0.949994C607.926 0.949994 612.886 1.41499 617.743 2.34499C622.703 3.27499 627.094 4.87666 630.918 7.15C634.844 9.42333 637.944 12.575 640.218 16.605C642.594 20.5317 643.783 25.4917 643.783 31.485C643.783 40.3717 641.716 47.605 637.583 53.185C633.449 58.765 627.921 62.64 620.998 64.81L628.593 69.615L653.393 111H628.903L604.258 68.53L593.098 66.515L593.098 111H571.863L571.863 3.585ZM604.413 19.86C602.243 19.86 600.073 19.9117 597.903 20.015C595.836 20.1183 594.234 20.325 593.098 20.635L593.098 52.1H602.088C607.978 52.1 612.679 50.7567 616.193 48.07C619.706 45.3833 621.463 40.94 621.463 34.74C621.463 30.09 620.016 26.4733 617.123 23.89C614.229 21.2033 609.993 19.86 604.413 19.86Z" fill="#D3D0D0" fill-opacity="0.2"/>
</svg>
